<?xml version="1.0" encoding="UTF-8"?>
<svg id="Layer_2" data-name="Layer 2" xmlns="http://www.w3.org/2000/svg" viewBox="0 0 86.49 127.48">
  <g id="Layer_1-2" data-name="Layer 1">
    <path d="M43.12,127.48c-4.38-4.09-8.02-8.89-10.93-14.27-11.06-.92-21.85-3.5-32.16-7.61-.11-5.38,0-10.6.46-15.89.55-6.14,1.51-12.17,3.01-18.15,2.71-10.86,7.15-21.11,13.27-30.48l6.12,3.52c.94-5.22,2.11-10.29,3.76-15.35,3.53-10.87,8.76-20.86,16.46-29.28,7.48,8.22,12.47,17.51,16.03,27.91,1.89,5.52,3.23,11.09,4.23,16.84l6.33-3.65c6.18,9.45,10.65,19.81,13.35,30.8,1.74,7.06,2.75,14.22,3.19,21.46.24,4.09.27,8.1.2,12.25-10.38,4.14-21.25,6.72-32.43,7.63-2.87,5.31-6.43,10.07-10.9,14.24ZM43.25,61.12c4.81-5.22,10.09-9.64,15.9-13.59-.86-5.6-2.07-10.99-3.77-16.33-1.55-4.84-3.42-9.44-5.77-13.93-1.89-3.57-3.99-6.92-6.48-10.1-2.07,2.66-3.82,5.34-5.46,8.21-2.69,4.78-4.82,9.74-6.54,14.97-1.83,5.56-3.13,11.22-4.02,17.02,5.94,4.01,11.28,8.49,16.14,13.75ZM29.72,108.33c-1.75-3.94-3.13-7.73-4.28-11.74-1.63-5.62-2.72-11.3-3.42-17.13-1.16-9.95-1.09-19.9.14-29.83l-3.8-2.32c-4.7,7.94-8.14,16.43-10.37,25.37-1.4,5.57-2.3,11.14-2.83,16.85-.39,4.34-.55,8.59-.53,12.9,8.16,2.98,16.45,4.96,25.1,5.9ZM81.88,102.42c.01-10.29-.92-19.97-3.4-29.85-2.23-8.89-5.66-17.34-10.35-25.26l-4.03,2.46c1.13,9.23,1.25,18.46.31,27.71-1.12,10.69-3.51,20.97-7.93,30.88,8.79-.93,17.15-2.94,25.4-5.94ZM40.22,64.64c-4.23-4.65-8.75-8.56-13.78-12.13-1.2,11.82-.78,23.44,1.56,35.06,2.63-8.51,6.69-16.1,12.22-22.93ZM58.35,87.18c2.27-11.5,2.62-23,1.45-34.48-5.04,3.59-9.55,7.53-13.52,11.96,5.51,6.84,9.49,14.26,12.07,22.52ZM51.19,108.83c1.94-3.94,3.47-7.83,4.71-11.88-1.72-10.51-6.04-20.35-12.66-28.68-6.75,8.52-11.06,18.48-12.73,29.15,1.26,3.94,2.71,7.73,4.57,11.41,5.39.35,10.72.37,16.11,0ZM48.48,113.62h-10.74c1.63,2.62,3.38,5.03,5.39,7.26,2.03-2.31,3.8-4.66,5.35-7.26Z"/>
  </g>
</svg>