<?xml version="1.0" encoding="UTF-8"?>
<svg id="Layer_2" data-name="Layer 2" xmlns="http://www.w3.org/2000/svg" viewBox="0 0 164.24 290.98">
  <g id="Layer_1-2" data-name="Layer 1">
    <path d="M60.35,206.02v18.83h4.35v-18.83h-4.35ZM61.05,206.72h2.95v17.43h-2.95v-17.43Z"/>
    <path d="M97.83,186.66h.03v-13.03h-3.87v13.03h3.84ZM94.72,174.33h2.41v11.63h-2.41v-11.63Z"/>
    <path d="M83.69,129.88c.4-.4.64-.95.64-1.56s-.25-1.16-.64-1.56c-.4-.4-.95-.64-1.55-.64s-1.16.25-1.55.64c-.4.4-.64.95-.64,1.56s.25,1.16.64,1.56c.4.4.95.64,1.55.64s1.16-.25,1.55-.64ZM80.63,128.32c0-.41.17-.79.44-1.06.27-.27.65-.44,1.06-.44s.79.17,1.06.44c.27.27.44.65.44,1.06s-.17.79-.44,1.06c-.27.27-.65.44-1.06.44s-.79-.17-1.06-.44c-.27-.27-.44-.65-.44-1.06Z"/>
    <path d="M99.86,206.02h-.35v18.83h4.38v-18.83h-4.03ZM103.17,224.15h-2.92v-17.43h2.92v17.43Z"/>
    <path d="M66.38,173.63v13.03h3.84v-13.03h-3.84ZM67.08,174.33h2.44v11.63h-2.44v-11.63Z"/>
    <path d="M155.48,159.41c-2.09-9.52-5.08-18.74-9.38-27.53-4.3-8.79-9.91-17.14-17.25-24.9l-.55-.58-.5.63c-3.47,4.39-6.6,8.84-9.42,13.34-2.95,4.69-5.56,9.44-7.88,14.21-2.33,4.81-4.38,9.72-6.16,14.64-1.77,4.9-3.28,9.81-4.5,14.62-.35-.43-.67-1.02-1.08-1.97-.17-.4-.34-.79-.54-1.13.07.12.14.24.2.37h0c1.25-4.6,2.78-9.38,4.55-14.15,1.67-4.49,3.56-8.97,5.65-13.29,2.47-5.11,5.29-10.18,8.47-15.18,3.05-4.8,6.45-9.54,10.23-14.21l.2-.24-.05-.3c-1.64-10.47-3.83-20.48-6.58-29.98-2.71-9.35-5.97-18.22-9.8-26.55-3.87-8.42-8.32-16.3-13.37-23.6-4.44-6.42-9.95-13.3-15.58-18.72-5.5,5.18-11.27,12.51-15.58,18.72-5.05,7.3-9.51,15.18-13.37,23.6-3.83,8.33-7.09,17.2-9.8,26.55-2.75,9.5-4.94,19.51-6.58,29.98l-.05.3.2.24c3.78,4.66,7.18,9.41,10.23,14.21,3.18,5,5.99,10.07,8.47,15.18,2.09,4.32,3.98,8.8,5.65,13.29,1.77,4.76,3.3,9.54,4.55,14.15h0c.06-.13.13-.26.2-.38-.2.35-.37.73-.54,1.14-.41.95-.73,1.54-1.08,1.97-1.23-4.81-2.73-9.72-4.5-14.62-1.78-4.92-3.84-9.83-6.16-14.64-2.31-4.78-4.93-9.52-7.88-14.21-2.82-4.5-5.96-8.95-9.42-13.34l-.5-.63-.55.58c-7.34,7.76-12.95,16.11-17.25,24.9-4.3,8.79-7.29,18.01-9.38,27.53-2.15,9.75-3.36,19.82-4.09,30.06-.73,10.19-.98,20.58-1.19,30.99,0,12.62.31,25.35.46,37.98l41.59-.25,36.59,28.39,36.59-28.39,41.59.25c.16-12.63.46-25.36.46-37.98-.21-10.41-.46-20.8-1.19-30.99-.73-10.24-1.95-20.31-4.09-30.06ZM100.18,165.91v23.39h-10.49v-8.22h.12v-2.3c.33-.16.63-.37.9-.64.61-.61,1.04-1.52,1.14-2.8.03-.41.03-.86,0-1.35v-.02c-.36-2.47.71-2.89,1.5-3.2l.04-.02.02-.64c-1.18-.56-2.28-.61-3.21-.36-.82.23-1.5.69-1.96,1.23.58-.81,1.23-1.42,1.55-1.6l.06-.56c-.57-.52-1.16-.82-1.74-.96-.62-.14-1.23-.09-1.79.12-.55.21-1.05.56-1.46,1.01-.13.15-.26.3-.37.47-.05-.58-.16-1.15-.36-1.68-.26-.7-.66-1.35-1.24-1.89h17.28ZM75.13,180.39v-1.12h13.98v1.12h-13.98ZM89,181.18v7.97h-2.1v-7.97h2.1ZM86.2,181.09v8.22h-3.43v-8.22h3.43ZM81.94,181.09v8.22h-3.88v-8.22h3.88ZM77.37,181.18v7.97h-2.09v-7.97h2.09ZM78.35,178.57s.05-.03.08-.05c.54-.36.95-.88,1.25-1.65v-.03c.14-.45.19-1.02.24-1.58.09-1.01.19-2.04.71-2.19.24-.04.54-.05.8.02.16.05.31.13.39.27h.59c.09-.14.23-.23.39-.27.25-.07.56-.06.8-.02.52.15.61,1.18.71,2.19.05.57.1,1.13.23,1.58v.03c.31.77.73,1.29,1.26,1.65.03.02.05.04.08.05h-7.54ZM88.4,178.45c-.2.02-.41.01-.62,0-.64-.08-1.17-.23-1.59-.51-.41-.27-.74-.69-.98-1.3-.11-.4-.16-.92-.21-1.45-.11-1.26-.23-2.54-1.23-2.81h-.03c-.32-.06-.75-.08-1.13.03-.18.05-.35.13-.5.25-.15-.12-.32-.2-.5-.25-.38-.11-.8-.09-1.13-.04h-.03c-1,.28-1.12,1.56-1.23,2.82-.05.52-.1,1.04-.21,1.45-.24.61-.57,1.02-.98,1.3-.42.28-.96.43-1.59.51-.21.02-.42.02-.62,0-.68-.05-1.32-.3-1.81-.79-.5-.5-.85-1.27-.94-2.36-.03-.37-.03-.79,0-1.24.32-2.29-.4-3.15-1.2-3.6.72-.2,1.39-.19,1.97-.03.95.26,1.66.9,1.99,1.57.54,1.12.5,2.04.25,2.71-.13.34-.31.62-.49.82-.16.18-.31.29-.41.32,0,0,0,0,0,.01l.02.08-.02-.08s.03.02.05.02l-.03.05-.3.52s.09.06.14.07c.11.04.32.12.58.14.76.08,1.91-.18,2.15-2.42.11-.97-.22-1.96-.69-2.83-.56-1.02-1.36-1.89-1.91-2.35.37-.27.73-.44,1.09-.52.49-.11.96-.07,1.39.1.44.17.85.45,1.19.83.44.48.77,1.11.92,1.79l.69-.11c-.11-1.04-.08-2.02.2-2.89.25-.79.72-1.5,1.46-2.1.66.51,1.1,1.16,1.36,1.88.35.96.41,2.05.29,3.11l.69.11c.16-.68.48-1.3.92-1.79.34-.38.75-.66,1.19-.83.43-.16.91-.21,1.39-.1.36.08.73.25,1.09.52-.55.46-1.35,1.33-1.91,2.35-.48.87-.8,1.85-.69,2.83.25,2.24,1.4,2.5,2.15,2.42.26-.03.47-.1.58-.14.05-.01.1-.04.14-.07l-.3-.52.02-.08s0,0,0,0c-.09-.03-.24-.14-.41-.32-.18-.2-.36-.48-.49-.82-.25-.67-.3-1.6.25-2.71.32-.67,1.04-1.31,1.99-1.57.58-.16,1.24-.17,1.97.03-.81.45-1.53,1.31-1.2,3.6.03.45.03.86,0,1.24-.09,1.1-.44,1.86-.94,2.36-.49.49-1.13.74-1.81.79ZM76.56,171.92c.37.72.62,1.51.53,2.27-.13,1.16-.53,1.61-.92,1.75.21-.25.41-.58.56-.97.29-.78.36-1.82-.17-3.05ZM87.51,174.96c.15.4.35.72.56.97-.39-.14-.79-.59-.92-1.75-.08-.76.16-1.55.53-2.27-.53,1.23-.46,2.27-.17,3.05ZM89,175.89s.04-.02.05-.03l-.02.08-.03-.05ZM62.59,146.46c-1.69-4.54-3.6-9.06-5.7-13.41-2.49-5.14-5.33-10.26-8.55-15.32-3.03-4.76-6.4-9.47-10.13-14.1,1.63-10.3,3.79-20.15,6.5-29.5,2.69-9.29,5.93-18.09,9.73-26.36,3.83-8.34,8.24-16.15,13.25-23.38,4.35-6.29,9.16-12.14,14.43-17.53,5.27,5.39,10.08,11.24,14.43,17.53,5.01,7.23,9.42,15.04,13.25,23.38,3.8,8.27,7.04,17.07,9.73,26.36,2.71,9.35,4.87,19.2,6.5,29.5-3.73,4.62-7.09,9.33-10.13,14.1-3.22,5.06-6.06,10.18-8.55,15.32-2.11,4.35-4.01,8.87-5.7,13.41-1.62,4.35-3.03,8.71-4.22,12.94v-7.88l-2.51-4.05c.04-.19.09-.41.14-.66,1.12-5.11,4.97-22.6-2.47-49.75h0c-1.41-4.95-3.92-16.96-4.18-26.65-.13-4.83.29-9.06,1.68-11.47.19-.22.34-.46.48-.7.23-.29.48-.54.76-.75l-.6-.81v-.02c-.72-.27-1.38-.84-1.92-1.63-.56-.82-.98-1.87-1.22-3.07h0c-1.83-8.56-3.01-14.99-3.66-19.67-.65-4.64-.77-7.53-.48-9.05v-.04s0-.05,0-.05c.01-.59.09-1.14.23-1.68.14-.53.35-1.04.62-1.52l.11-.19-1.79-6.8h-1.01l-1.79,6.8.11.19c.27.48.48.99.62,1.52.14.54.22,1.1.23,1.68v.05s0,.04,0,.04c.29,1.52.16,4.41-.48,9.05-.65,4.68-1.84,11.11-3.66,19.66h0c-.23,1.21-.66,2.26-1.22,3.08-.54.79-1.2,1.36-1.92,1.63v.02s-.59.81-.59.81c.28.2.53.46.76.75.14.24.29.48.47.7,1.39,2.41,1.81,6.64,1.68,11.47-.26,9.69-2.78,21.71-4.18,26.65h0c-7.44,27.16-3.59,44.65-2.47,49.76.05.25.1.47.14.66l-2.51,4.05v7.88c-1.19-4.23-2.61-8.59-4.22-12.94ZM81.82,23.11c-.02-.66-.1-1.28-.26-1.88-.15-.55-.35-1.08-.62-1.58l1.18-4.47,1.18,4.47c-.27.5-.47,1.03-.62,1.58-.16.6-.25,1.23-.26,1.88-.3,1.63-.17,4.63.48,9.35.25,1.82.59,3.89,1,6.25h-3.56c.42-2.36.75-4.43,1-6.25.66-4.72.78-7.71.48-9.35ZM83.23,40.3c-.15-.37-.41-.75-.84-1.04v-.02h1.6v.06c-.38.29-.62.65-.77,1ZM84.1,39.82c.1.57.21,1.15.32,1.74h-.95c-.02-.39.03-1.17.63-1.74ZM82.98,41.57h-1.72c-.02-.43.05-1.36.86-1.94.82.57.88,1.5.86,1.94ZM81.85,39.24v.02c-.42.3-.68.67-.84,1.04-.15-.35-.39-.71-.78-1v-.06h1.62ZM80.77,41.57h-.95c.11-.6.22-1.18.32-1.74.59.57.65,1.36.63,1.74ZM80.86,42.1h0s.04,0,.04,0h.27s0,0,0,0h1.91s.04,0,.04,0h.27s0,0,0,0h1.14l.07.39h-4.96l.07-.39h1.14ZM82.12,43.36c1.12.67,1.24,1.85,1.22,2.43h-2.45c-.02-.59.11-1.76,1.22-2.43ZM80.6,44.28c-.17-.4-.43-.8-.84-1.14h1.69c-.41.34-.68.74-.84,1.14ZM82.8,43.14h1.68c-.41.34-.67.74-.84,1.14-.17-.4-.43-.8-.84-1.14ZM84.82,43.61c.14.71.28,1.43.43,2.18h-1.3c-.01-.52.08-1.49.87-2.18ZM80.3,45.79h-1.3c.15-.75.29-1.47.43-2.18.79.68.88,1.66.87,2.18ZM82.12,46.59h3.29l.13.62h-6.82l.13-.62h3.28ZM82.12,48.12c1.7.87,1.74,2.63,1.69,3.27h-3.38c-.05-.64-.01-2.4,1.69-3.27ZM80.06,49.36c-.2-.47-.51-.95-.99-1.36h1.97c-.48.41-.79.88-.99,1.36ZM83.2,48.01h1.98c-.48.41-.79.88-.99,1.36-.2-.47-.51-.95-.99-1.36ZM85.78,48.42c.2.96.41,1.95.62,2.98h-1.84c-.04-.57-.02-2.05,1.22-2.98ZM79.68,51.39h-1.84c.22-1.02.43-2.02.62-2.98,1.24.92,1.26,2.4,1.22,2.98ZM82.12,52.26h4.47c.04.2.09.4.14.6h-9.21c.05-.2.1-.4.14-.6h4.47ZM82.12,53.73h4.88c.26.71.58,1.35.96,1.91.34.49.72.92,1.13,1.26h-13.93c.41-.34.79-.77,1.13-1.26.38-.55.7-1.2.96-1.91h4.88ZM89.67,57.73c-.13.17-.25.36-.37.55-.08.09-.16.18-.25.25-.23.18-.48.3-.74.42-.32.15-.65.3-1.02.59-.51.39-.85.81-1.08,1.21-.29-.65-.79-1.35-1.67-1.91l-.32-.21-.32.21c-.99.63-1.51,1.45-1.77,2.17-.27-.72-.78-1.53-1.77-2.17l-.32-.21-.32.21c-.88.56-1.38,1.26-1.67,1.91-.23-.41-.57-.82-1.08-1.21-.37-.28-.7-.44-1.02-.59-.26-.12-.51-.24-.74-.42-.09-.07-.17-.15-.25-.25-.12-.19-.24-.38-.37-.55h15.09ZM86.21,66.8c.09-.07.18-.14.26-.22.4-.4.64-.95.64-1.55s-.25-1.16-.64-1.56c-.11-.11-.22-.2-.35-.29l.65.02v-.03h.97c-.18,1.13-.29,2.35-.34,3.64h-1.18ZM87.36,67.63c-.02.72-.02,1.46,0,2.22-.84-.79-1-1.76-1.03-2.22h1.03ZM76.85,66.8c-.06-1.29-.17-2.51-.34-3.64h.96v.03s.65-.02.65-.02c-.13.08-.24.18-.35.29-.4.4-.64.95-.64,1.56s.25,1.16.64,1.55c.08.08.17.15.26.22h-1.18ZM77.91,67.63c-.02.46-.18,1.43-1.03,2.22.01-.76.01-1.5,0-2.22h1.03ZM77.83,65.02c0-.41.17-.79.44-1.06.27-.27.65-.44,1.06-.44s.79.17,1.06.44c.27.27.44.65.44,1.06s-.17.79-.44,1.06c-.27.27-.65.44-1.06.44s-.79-.17-1.06-.44c-.27-.27-.44-.65-.44-1.06ZM78.58,62.33c.03-.55.25-1.75,1.44-2.61,1.2.86,1.41,2.05,1.44,2.61h-2.89ZM81.58,67.63c-.03.52-.23,1.68-1.39,2.51-1.16-.83-1.36-1.99-1.38-2.51h2.77ZM80.63,66.8c.09-.07.18-.14.26-.22.4-.4.64-.95.64-1.55s-.25-1.16-.64-1.56c-.11-.11-.24-.22-.38-.3h3.24c-.14.09-.27.19-.38.3-.4.4-.64.95-.64,1.56s.25,1.16.64,1.55c.08.08.17.15.26.22h-2.99ZM82.77,62.33c.03-.55.25-1.75,1.44-2.61,1.2.86,1.41,2.05,1.44,2.61h-2.89ZM85.43,67.63c-.03.52-.23,1.68-1.38,2.51-1.16-.83-1.36-1.99-1.39-2.51h2.77ZM84.91,66.52c-.41,0-.79-.17-1.06-.44-.27-.27-.44-.65-.44-1.06s.17-.79.44-1.06c.27-.27.65-.44,1.06-.44s.79.17,1.06.44c.27.27.44.65.44,1.06s-.17.79-.44,1.06c-.27.27-.65.44-1.06.44ZM86.8,62.33c.02-.24.07-.49.17-.76.15-.39.44-.81.96-1.21.19-.15.38-.25.57-.34-.25.7-.45,1.48-.62,2.31h-1.08ZM76.31,60.36c.52.4.8.82.96,1.21.1.26.15.52.17.76h-1.08c-.16-.84-.37-1.61-.62-2.31.19.09.38.2.57.34ZM76.86,70.98c.76-.49,1.22-1.09,1.51-1.66.29.58.76,1.18,1.52,1.67l.31.2.31-.2c.86-.55,1.34-1.23,1.62-1.87.27.63.76,1.32,1.62,1.87l.31.2.31-.2c.77-.49,1.24-1.09,1.52-1.67.28.57.75,1.17,1.51,1.66.34,9.7,2.81,21.49,4.2,26.38h0c2.64,9.62,3.84,18.02,4.25,25.06l-.82-.09c-.1.94-1.54,1.06-3.21,1.2-2.31.19-5,.41-6.06,2.77-.27-.38-.6-.73-.95-1.11-.08-.08-.16-.17-.24-.25,1.04-1.23,3.02-1.53,4.77-1.79,2.14-.32,3.98-.59,4.01-2.38h0c.46-.1.82-.33,1.08-.63.44-.49.61-1.17.61-1.76,0-.5-.2-1.12-.53-1.74-.33-.62-.8-1.28-1.34-1.86l-.34-.36-.33.37c-.52.58-1,1.25-1.34,1.89-.33.61-.53,1.21-.53,1.71,0,.59.17,1.26.61,1.76.29.33.69.57,1.22.65-.05.99-1.53,1.2-3.23,1.46-1.87.28-3.97.59-5.24,1.99-.16-.21-.32-.43-.47-.68-.01-.98,1.29-1.17,2.3-1.36,1.16-.21,2.29-.42,2.54-1.51.33-.12.6-.31.81-.55.43-.49.61-1.17.61-1.76,0-.5-.2-1.12-.53-1.74-.33-.62-.8-1.28-1.34-1.86l-.34-.36-.33.37c-.52.58-1,1.25-1.34,1.89-.32.61-.53,1.21-.53,1.71,0,.59.17,1.26.61,1.76.3.34.72.59,1.28.66-.33.28-.96.39-1.6.51-.98.18-2.11.37-2.68,1.05-.14-.44-.23-.93-.27-1.49.43-.11.77-.35,1.03-.65.43-.52.6-1.22.6-1.83,0-.11,0-.22-.03-.34h0c.13-3.49,2.05-3.71,3.64-3.91,1.2-.14,2.26-.27,2.65-1.32.46-.1.81-.33,1.07-.62.44-.49.61-1.17.61-1.76,0-.5-.2-1.12-.53-1.74-.33-.62-.8-1.27-1.34-1.86l-.34-.36-.33.37c-.52.58-1,1.25-1.34,1.89-.32.61-.53,1.21-.53,1.71,0,.59.17,1.26.61,1.76.25.28.58.5,1,.61-.37.28-.97.36-1.63.44-1.64.2-3.56.43-4.21,3.04l-.06-.1c-.16-1.51.56-2.03,1.18-2.47.38-.27.73-.53.94-.92.4-.11.71-.32.95-.59.44-.49.61-1.17.61-1.76,0-.5-.2-1.12-.53-1.74-.33-.62-.8-1.27-1.34-1.86l-.34-.36-.33.37c-.52.58-1,1.25-1.34,1.89-.33.61-.53,1.21-.53,1.71,0,.59.17,1.26.61,1.76.25.29.58.51,1.01.61-.07.06-.15.11-.23.17h0c-.6.43-1.28.91-1.5,1.95l-.04-.05v-7.27c.38-1.53,1.76-1.66,2.97-1.77,1.14-.11,2.17-.2,2.57-1.15.35-.12.63-.32.85-.57.44-.49.61-1.17.61-1.76,0-.5-.2-1.12-.53-1.74-.33-.62-.8-1.28-1.34-1.86l-.34-.37-.33.37c-.52.58-1,1.25-1.34,1.89-.32.61-.53,1.21-.53,1.71,0,.59.17,1.26.61,1.76.25.28.57.5.99.61-.34.12-.81.16-1.3.21-1.01.09-2.12.2-2.89.87v-.82c.45-.11.79-.35,1.05-.66.43-.52.6-1.22.6-1.83,0-.51-.2-1.14-.52-1.78-.2-.4-.45-.81-.72-1.2,1.48-.73,1.84-1.45,2.36-2.2.19-.27.37-.54.59-.76.21-.11.39-.26.54-.43.44-.49.61-1.17.61-1.76,0-.5-.2-1.12-.53-1.74-.33-.62-.8-1.28-1.34-1.86l-.34-.36-.33.37c-.52.58-1,1.25-1.34,1.89-.32.61-.53,1.21-.53,1.71,0,.59.17,1.26.61,1.76.31.35.74.61,1.33.67h0c-.45.66-.74,1.28-2.01,1.91v-9.89c.45-.11.79-.35,1.05-.66.43-.52.6-1.22.6-1.83,0-.51-.2-1.14-.52-1.78-.29-.58-.69-1.19-1.12-1.73v-1.3c.47-.14.82-.45,1.08-.86.41-.64.56-1.51.56-2.26,0-.64-.2-1.42-.51-2.23-.33-.87-.81-1.78-1.32-2.57l-.38-.58-.38.57c-.53.79-.99,1.68-1.32,2.53-.32.83-.51,1.63-.51,2.28,0,.75.16,1.63.56,2.26.27.43.64.75,1.14.88v1.21c-.47.56-.88,1.18-1.18,1.78-.33.66-.53,1.3-.53,1.82,0,.61.17,1.32.6,1.83.27.32.63.57,1.11.67v9.88c-1.28-.64-1.56-1.25-2.01-1.9h0c.58-.07,1.02-.33,1.33-.68.44-.49.61-1.17.61-1.76,0-.49-.2-1.09-.53-1.71-.34-.64-.82-1.31-1.34-1.89l-.33-.37-.34.36c-.54.58-1.01,1.23-1.34,1.86-.33.62-.53,1.24-.53,1.74,0,.59.17,1.26.61,1.76.15.17.33.32.54.43.21.23.4.49.59.76.51.74.87,1.45,2.31,2.17-.28.39-.53.79-.72,1.19-.33.66-.53,1.3-.53,1.82,0,.61.17,1.32.6,1.83.27.32.63.57,1.11.67v.81c-.78-.67-1.88-.77-2.89-.87-.49-.05-.96-.09-1.3-.21.42-.11.74-.33.99-.61.44-.49.61-1.17.61-1.76,0-.5-.2-1.09-.53-1.71-.34-.64-.82-1.31-1.34-1.89l-.33-.37-.34.37c-.54.58-1.01,1.23-1.34,1.86-.33.62-.53,1.24-.53,1.74,0,.59.17,1.26.61,1.76.22.25.5.45.85.57.41.95,1.43,1.04,2.57,1.15,1.21.11,2.59.24,2.97,1.77v7.19l-.05.07c-.24-.99-.9-1.46-1.49-1.89h0c-.08-.06-.16-.11-.23-.17.43-.1.76-.33,1.01-.61.44-.49.61-1.17.61-1.76,0-.5-.2-1.1-.53-1.71-.34-.64-.82-1.31-1.34-1.89l-.33-.37-.34.36c-.54.58-1.01,1.24-1.34,1.86-.33.62-.53,1.24-.53,1.74,0,.59.17,1.26.61,1.76.24.27.55.48.95.59.21.4.56.65.94.92.59.43,1.29.92,1.19,2.32-.03.05-.06.11-.09.16-.68-2.53-2.57-2.76-4.19-2.95-.66-.08-1.27-.15-1.63-.44.42-.11.75-.33,1-.61.43-.49.61-1.17.61-1.76,0-.5-.2-1.1-.53-1.71-.34-.64-.82-1.31-1.34-1.89l-.33-.37-.34.36c-.54.58-1.01,1.24-1.34,1.86-.33.62-.53,1.24-.53,1.74,0,.59.17,1.26.61,1.76.26.3.61.53,1.07.62.39,1.05,1.45,1.18,2.65,1.32,1.56.19,3.43.41,3.63,3.68-.04.2-.07.39-.07.57,0,.61.17,1.32.6,1.83.27.32.62.56,1.08.66-.04.56-.14,1.05-.27,1.48-.57-.68-1.7-.86-2.68-1.05-.64-.12-1.27-.23-1.6-.51.56-.07.98-.32,1.28-.66.44-.49.61-1.17.61-1.76,0-.5-.2-1.1-.53-1.71-.34-.64-.82-1.31-1.34-1.89l-.33-.37-.34.36c-.54.58-1.01,1.24-1.34,1.86-.33.62-.53,1.24-.53,1.74,0,.59.17,1.26.61,1.76.21.24.48.43.81.55.25,1.09,1.38,1.3,2.54,1.51,1.01.19,2.31.38,2.3,1.36-.15.25-.3.47-.47.68-1.26-1.4-3.37-1.71-5.24-1.99-1.71-.25-3.18-.47-3.23-1.46.53-.08.93-.32,1.22-.65.44-.49.61-1.17.61-1.76,0-.5-.2-1.1-.53-1.71-.34-.64-.82-1.31-1.34-1.89l-.33-.37-.34.36c-.54.58-1.01,1.24-1.34,1.86-.33.62-.53,1.24-.53,1.74,0,.59.17,1.26.61,1.76.27.3.62.53,1.08.63h0c.03,1.79,1.87,2.06,4.01,2.38,1.75.26,3.73.56,4.77,1.79-.08.09-.16.17-.24.25-.35.37-.68.72-.95,1.11-1.06-2.35-3.75-2.58-6.06-2.77-1.67-.14-3.11-.26-3.21-1.2l-.82.09c.41-7.04,1.62-15.44,4.25-25.06h0c1.39-4.89,3.87-16.68,4.2-26.38ZM94.57,130.02c-.98.91-2.07,1.92-2.43,3.19-.29-.64-.8-1.32-1.65-1.86l-.32-.2-.32.2c-.64.41-1.08.9-1.39,1.38.02-.06.04-.13.06-.2.39-1.39-.15-2.06-.69-2.74-.34-.43-.69-.87-.65-1.57.65-1.12,1.33-2.13,2.77-2.29,1.14.02,2.1.83,1.46,1.7,0-2.25-3.7-1.51-2.97.92.6,2,3.88,3.38,5.96-.25.75-1.3,1.13-3.02,1.05-4.79h0c.2-.2.34-.44.42-.74.11,2.01.16,3.91.15,5.69-.25.48-.82,1-1.44,1.57ZM96,129.91c-.02,1.47-.08,2.85-.17,4.15h-2.9c.03-1.32,1.21-2.41,2.26-3.38.28-.26.56-.52.81-.77ZM91.48,134.05h-2.62c.17-.57.53-1.28,1.31-1.84.78.56,1.14,1.26,1.31,1.84ZM84.52,131.63c-.09.29-.12.57-.1.84.03.38.17.73.39,1.02.19.25.44.44.74.57h-2.58c.03-1.21.94-2,1.77-2.73.4-.35.78-.68,1.07-1.05.25-.27.47-.57.67-.89.17.37.4.66.64.96.4.5.79.99.53,1.92-.11.38-.28.62-.49.77-.21.15-.47.22-.73.24-.17.01-.31,0-.44-.04-.19-.06-.34-.17-.46-.32-.11-.15-.18-.33-.2-.54-.01-.16,0-.32.06-.48l-.87-.27ZM79.73,131.63l-.87.27c.05.16.07.33.06.48-.02.2-.09.39-.2.54-.11.15-.27.26-.46.32-.13.04-.28.06-.44.04-.27-.02-.53-.09-.73-.24-.21-.15-.38-.39-.49-.77-.26-.94.13-1.43.53-1.92.24-.3.48-.59.64-.96.2.31.42.61.67.89.3.36.68.7,1.07,1.05.83.73,1.74,1.52,1.77,2.73h-2.58c.3-.13.55-.32.74-.57.22-.29.36-.64.39-1.02.02-.27,0-.55-.1-.84ZM77.06,134.05h-.73c-.05-.23-.13-.47-.23-.73.13.18.28.33.45.45.16.12.34.21.52.28ZM71.84,127.7c.16.44.66.82,1.27.89l.24-.51h0s.03,0,.03,0c-.09-.43.04-.71.26-.86,1.02-.7,2.12.89.64,2-2.08,1.56-4.54-1.36-4.57-5.2.72.25,1.66.33,2.66.41,2.29.19,4.99.41,5.56,3.03-.05.2-.09.42-.1.65-.09-.16-.17-.32-.25-.47-.87-1.69-2.29-2.78-3.86-2.45-.8.17-1.59.59-1.87,1.39-.13.35-.13.74,0,1.12ZM80.1,130.64c-.63-.55-1.21-1.06-1.31-1.61-.28-1.51.46-2.3,1.32-3.22.74-.78,1.55-1.65,2.01-3.03.46,1.38,1.27,2.24,2.01,3.03.86.92,1.6,1.71,1.32,3.22-.1.55-.69,1.07-1.31,1.61-.85.74-1.77,1.55-2.02,2.76-.25-1.21-1.17-2.01-2.02-2.76ZM80.86,117.9c.07-.28.2-.6.36-.93.11-.21.23-.42.36-.64h0s0-.02,0-.02c.15-.23.31-.47.49-.69.34.45.64.93.88,1.39.26.52.43,1.01.43,1.38,0,.43-.11.92-.38,1.25-.19.23-.49.39-.91.39s-.72-.16-.91-.39c-.28-.33-.38-.82-.38-1.25,0-.11.01-.24.04-.37h.03s0-.11,0-.11ZM82.96,84.92c.26.52.43,1.01.43,1.38,0,.43-.11.92-.38,1.25-.19.23-.49.39-.91.39s-.72-.16-.91-.39c-.28-.33-.38-.82-.38-1.25,0-.38.16-.88.43-1.42.22-.45.52-.91.86-1.35.34.45.64.93.88,1.39ZM81.21,80.14c-.3-.47-.42-1.16-.42-1.78,0-.54.17-1.23.45-1.96.22-.58.51-1.18.84-1.74.33.58.63,1.19.86,1.79.27.71.45,1.39.45,1.91,0,.61-.12,1.3-.42,1.78-.2.31-.48.52-.88.52s-.68-.21-.88-.52ZM82.96,101.1c.26.52.43,1.01.43,1.38,0,.43-.11.92-.38,1.25-.19.23-.49.39-.91.39s-.72-.16-.91-.39c-.28-.33-.38-.82-.38-1.25,0-.38.16-.88.43-1.42.22-.45.52-.91.86-1.35.34.45.64.93.88,1.39ZM90.89,128.08h0s.24.51.24.51c.61-.07,1.11-.45,1.27-.89.14-.39.13-.77,0-1.12-.29-.8-1.07-1.22-1.87-1.39-1.57-.33-2.99.77-3.86,2.45-.08.15-.16.31-.25.47-.01-.23-.05-.45-.1-.65.58-2.61,3.28-2.84,5.56-3.03,1.01-.08,1.94-.16,2.66-.41-.03,3.84-2.49,6.75-4.57,5.2-1.48-1.11-.39-2.7.64-2,.22.15.35.43.26.86h.03ZM87.7,133.78c.17-.12.32-.27.45-.45-.11.26-.18.5-.23.73h-.73c.18-.07.35-.16.52-.28ZM92.8,119.91c-.43,0-.73-.15-.92-.37-.27-.31-.38-.76-.38-1.16,0-.34.16-.79.42-1.28.23-.44.54-.89.88-1.32.34.41.64.86.87,1.28.26.5.42.96.42,1.31,0,.4-.1.85-.37,1.16-.2.22-.49.37-.92.37ZM87.54,119.91c-.43,0-.73-.15-.92-.37-.27-.31-.38-.76-.38-1.16,0-.34.16-.79.42-1.28.23-.44.54-.89.88-1.32.34.41.64.86.87,1.28.27.5.43.96.43,1.31,0,.4-.11.85-.38,1.16-.2.22-.49.37-.92.37ZM90.04,111.96c-.43,0-.72-.15-.92-.37-.27-.31-.38-.76-.38-1.16,0-.34.16-.79.42-1.28.23-.44.54-.89.88-1.32.34.41.64.85.86,1.28.27.5.43.96.43,1.31,0,.4-.11.85-.38,1.16-.2.22-.49.37-.92.37ZM84.09,111.59c-.27-.31-.38-.76-.38-1.16,0-.34.16-.79.42-1.28.23-.44.54-.89.88-1.32.34.41.64.85.86,1.28.27.5.43.96.43,1.31,0,.4-.11.85-.38,1.16-.19.22-.49.37-.92.37s-.72-.15-.92-.37ZM87.45,103.89c-.43,0-.73-.15-.92-.37-.27-.31-.38-.76-.38-1.16,0-.34.16-.79.42-1.28.23-.44.54-.89.88-1.32.34.41.64.85.86,1.28.27.5.43.96.43,1.31,0,.4-.11.85-.38,1.16-.19.22-.49.37-.92.37ZM84.94,95.88c-.43,0-.73-.15-.92-.37-.27-.31-.38-.76-.38-1.16,0-.34.16-.79.42-1.28.23-.44.54-.89.88-1.32.34.41.64.85.86,1.28.27.5.43.96.43,1.31,0,.4-.11.85-.37,1.16-.2.22-.49.37-.92.37ZM79.3,95.88c-.43,0-.73-.15-.92-.37-.27-.31-.37-.76-.37-1.16,0-.35.16-.82.43-1.31.23-.43.52-.87.86-1.28.34.42.64.88.88,1.32.26.49.42.94.42,1.28,0,.4-.11.85-.38,1.16-.19.22-.49.37-.92.37ZM76.79,103.89c-.43,0-.73-.15-.92-.37-.27-.31-.37-.76-.37-1.16,0-.35.16-.81.43-1.31.23-.43.52-.87.86-1.28.34.42.64.88.88,1.32.26.49.42.94.42,1.28,0,.4-.11.85-.38,1.16-.19.22-.49.37-.92.37ZM79.23,111.96c-.43,0-.73-.15-.92-.37-.27-.31-.38-.76-.38-1.16,0-.35.16-.81.43-1.31.23-.43.52-.87.86-1.28.34.42.65.88.88,1.32.26.49.42.94.42,1.28,0,.4-.1.85-.37,1.16-.2.22-.49.37-.92.37ZM74.2,111.96c-.43,0-.72-.15-.92-.37-.27-.31-.38-.76-.38-1.16,0-.35.16-.81.43-1.31.23-.43.52-.87.86-1.28.34.42.64.88.88,1.32.26.49.42.94.42,1.28,0,.4-.11.85-.38,1.16-.19.22-.49.37-.92.37ZM76.7,119.91c-.43,0-.72-.15-.92-.37-.27-.31-.38-.76-.38-1.16,0-.35.16-.81.43-1.31.23-.43.52-.87.87-1.28.34.42.65.88.88,1.32.26.49.42.94.42,1.28,0,.4-.11.85-.37,1.16-.2.22-.49.37-.92.37ZM71.44,119.91c-.43,0-.73-.15-.92-.37-.27-.31-.38-.76-.38-1.16,0-.35.16-.81.43-1.31.23-.43.53-.87.86-1.28.34.42.64.88.88,1.32.26.49.42.94.42,1.28,0,.4-.11.85-.37,1.16-.2.22-.49.37-.92.37ZM68.8,123.5h0c-.08,1.77.3,3.49,1.05,4.79,2.08,3.63,5.37,2.24,5.96.25.73-2.44-2.96-3.17-2.97-.92-.64-.87.32-1.67,1.46-1.7,1.44.17,2.12,1.17,2.77,2.29.04.7-.31,1.14-.65,1.57-.55.68-1.08,1.35-.69,2.74.02.07.04.13.06.2-.3-.49-.75-.97-1.39-1.38l-.32-.2-.32.2c-.85.54-1.36,1.23-1.65,1.86-.36-1.27-1.44-2.27-2.43-3.19-.61-.57-1.18-1.09-1.44-1.57,0-1.78.04-3.68.15-5.69.08.3.22.55.42.74ZM75.38,134.05h-2.62c.17-.57.53-1.28,1.31-1.84.78.56,1.14,1.26,1.31,1.84ZM69.05,130.68c1.05.97,2.22,2.06,2.26,3.38h-2.9c-.08-1.3-.14-2.68-.17-4.15.25.25.52.51.81.77ZM71.69,134.88h24.08c-.03.37-.06.74-.09,1.09h-27.13c-.03-.36-.06-.72-.09-1.09h3.23ZM73.9,140.41c.42-.42.68-1,.68-1.64s-.26-1.22-.68-1.64c-.13-.13-.28-.25-.45-.35h4.28c-.16.1-.31.22-.45.35-.42.42-.68,1-.68,1.64s.26,1.22.68,1.64c.09.09.18.17.29.24h-3.95c.1-.07.2-.15.29-.24ZM73.38,139.89c-.29.29-.68.46-1.12.46s-.83-.18-1.12-.46c-.29-.29-.46-.68-.46-1.12s.18-.83.46-1.12c.29-.29.68-.46,1.12-.46s.83.18,1.12.46c.29.29.46.68.46,1.12s-.18.83-.46,1.12ZM77.34,138.78c0-.44.18-.83.46-1.12.29-.29.68-.46,1.12-.46s.83.18,1.12.46c.28.29.46.68.46,1.12s-.18.83-.46,1.12c-.29.29-.68.46-1.12.46s-.83-.18-1.12-.46c-.28-.29-.46-.68-.46-1.12ZM80.56,140.41c.42-.42.68-1,.68-1.64s-.26-1.22-.68-1.64c-.13-.13-.28-.25-.45-.35h3.99c-.16.1-.31.22-.45.35-.42.42-.68,1-.68,1.64s.26,1.22.68,1.64c.09.09.18.17.29.24h-3.66c.1-.07.2-.15.29-.24ZM83.71,138.78c0-.44.18-.83.46-1.12.29-.29.68-.46,1.12-.46s.83.18,1.12.46c.29.29.46.68.46,1.12s-.18.83-.46,1.12c-.29.29-.68.46-1.12.46s-.83-.18-1.12-.46c-.28-.29-.46-.68-.46-1.12ZM86.93,140.41c.42-.42.68-1,.68-1.64s-.26-1.22-.68-1.64c-.13-.13-.28-.25-.45-.35h4.28c-.16.1-.31.22-.45.35-.42.42-.68,1-.68,1.64s.26,1.22.68,1.64c.09.09.18.17.29.24h-3.95c.1-.07.2-.15.29-.24ZM90.37,138.78c0-.44.18-.83.46-1.12.29-.29.68-.46,1.12-.46s.83.18,1.12.46c.29.29.46.68.46,1.12s-.18.83-.46,1.12c-.29.29-.68.46-1.12.46s-.83-.18-1.12-.46c-.29-.29-.46-.68-.46-1.12ZM93.58,140.41c.42-.42.68-1,.68-1.64s-.26-1.22-.68-1.64c-.13-.13-.28-.25-.45-.35h2.48c-.14,1.42-.3,2.71-.47,3.86h-1.85c.1-.07.2-.15.29-.24ZM71.08,136.79c-.16.1-.31.22-.45.35-.42.42-.68,1-.68,1.64s.26,1.22.68,1.64c.09.09.18.17.29.24h-1.82c-.17-1.16-.33-2.45-.47-3.86h2.45ZM82.09,141.48h12.93c-.06.41-.13.79-.19,1.17h-25.41c-.07-.37-.13-.76-.19-1.17h12.87ZM94.68,143.47c-.24,1.32-.47,2.37-.64,3.14l-.06.28h-23.71l-.06-.28c-.17-.77-.4-1.82-.64-3.14h25.12ZM70.23,147.7h23.77l2.3,3.72h-28.38l2.3-3.72ZM78.74,152.24h17.64v7.37h-28.52v-7.37h10.88ZM66.46,162.27c.34-.8.65-1.51,1.28-1.81h.13v-.03h28.52v.03h.13c.63.31.93,1.02,1.28,1.81.36.84.76,1.76,1.57,2.55h-34.47c.82-.79,1.21-1.71,1.57-2.55ZM64.06,165.91h17.29c-.67.63-1.1,1.35-1.35,2.14-.15.45-.23.93-.27,1.42-.11-.16-.23-.31-.36-.46-.41-.45-.91-.81-1.46-1.01-.56-.21-1.17-.27-1.79-.12-.58.13-1.17.44-1.74.96l.06.56c.32.18.97.78,1.55,1.6-.47-.55-1.15-1.01-1.96-1.23-.92-.25-2.02-.21-3.21.36l.02.64.04.02c.79.31,1.86.73,1.51,3.2v.02c-.04.49-.04.94,0,1.36.11,1.27.53,2.18,1.14,2.79.27.27.58.49.91.65v2.29h.14v8.22h-10.51v-23.39ZM64.06,190.36h36.13c2.29-.09,3,1.27,3.87,2.85.57,1.03,1.16,2.11,2.15,2.95h-48.16c.99-.85,1.58-1.92,2.15-2.95.88-1.59,1.58-2.94,3.87-2.84h0ZM72.63,219.9v-2h18.6v2h-18.6ZM90.99,220.87v10h-3.11v-10h3.11ZM87.18,220.6v10.29h-4.46v-10.29h4.46ZM81.99,220.6v10.29h-5.13v-10.29h5.13ZM76.16,220.6v10h-3.11v-10h3.11ZM80.13,212.7s-.03-.1-.05-.16c-.07-.33-.06-.81.05-1.23.1-.38.27-.71.52-.81.02,0,.04-.01.06-.02.3-.05.53-.05.7.02.16.06.29.17.42.34h.56c.12-.17.26-.28.42-.34.18-.06.4-.07.7-.02.02,0,.04.01.06.02.25.1.43.43.52.81.11.43.12.9.05,1.23-.01.06-.03.12-.05.16-.09.23-.01.38.21.47.11.04.25.03.43.02.41-.03,1.23-.1,1.37.3.16,1.25.65,2.15,1.27,2.76.47.46,1.02.77,1.57.95h-13.68c.55-.18,1.09-.49,1.56-.95.62-.62,1.11-1.51,1.27-2.76.14-.4.96-.33,1.37-.3.19.01.33.03.43-.02.22-.09.3-.24.21-.47ZM90.75,216.71c-.19.02-.38.02-.56.02-.74-.03-1.63-.3-2.31-.98-.53-.52-.94-1.29-1.07-2.38v-.05c-.27-.89-1.3-.88-1.94-.84.05-.4.02-.9-.09-1.34-.15-.58-.45-1.09-.94-1.28-.06-.02-.12-.04-.18-.05h-.01c-.42-.07-.76-.06-1.05.04-.18.06-.33.15-.47.27-.14-.12-.29-.21-.47-.27-.29-.1-.63-.12-1.05-.04h-.01c-.06.02-.12.03-.18.06-.49.19-.79.71-.94,1.28-.12.45-.14.95-.09,1.34-.64-.04-1.68-.05-1.93.84v.05c-.15,1.1-.56,1.86-1.08,2.38-.68.67-1.57.94-2.31.98-.18,0-.37,0-.56-.02-.98-.08-1.93-.4-2.64-1.15-.72-.77-1.21-2-1.23-3.88,0-.36,0-.76.04-1.19.25-1.79,0-3.46-.48-4.81-.48-1.37-1.21-2.44-1.89-3.02,1.34-.39,2.64.05,3.71.82,1.1.79,1.97,1.91,2.42,2.86.11.23.19.44.25.63.63,2.19.69,3.65.46,4.6-.15.62-.42,1.01-.71,1.25-.29.23-.61.33-.87.35-.23.02-.39,0-.44-.04l-.4.57.05.03c.08.05.27.16.5.26.32.14.76.29,1.24.31,1.19.06,2.54-.62,2.69-3.87.08-1.66-.37-3.34-1.02-4.78-.69-1.54-1.62-2.81-2.39-3.49.36-.15.7-.26,1.02-.32.92-.19,1.7-.04,2.35.35.67.41,1.21,1.08,1.64,1.94.43.85.75,1.87.98,3l.69-.08c-.07-1.5.1-3.4.69-5.04.42-1.16,1.05-2.18,1.98-2.84.92.65,1.56,1.68,1.98,2.84.6,1.64.76,3.54.69,5.04l.69.08c.23-1.12.55-2.15.98-3,.43-.86.98-1.53,1.64-1.94.65-.4,1.43-.54,2.35-.35.32.07.66.17,1.02.32-.77.68-1.7,1.95-2.39,3.49-.65,1.44-1.1,3.13-1.02,4.78.16,3.25,1.5,3.92,2.69,3.86.48-.02.92-.17,1.24-.31.23-.1.41-.21.5-.26l.05-.03-.39-.57c-.05.03-.22.06-.45.04-.27-.02-.6-.12-.89-.36-.3-.25-.57-.65-.71-1.28-.22-.95-.15-2.39.47-4.55.05-.19.14-.4.25-.64.45-.95,1.32-2.07,2.42-2.86,1.07-.77,2.37-1.21,3.71-.82-.68.58-1.4,1.65-1.89,3.02-.48,1.36-.73,3.02-.48,4.81.03.43.05.83.04,1.19-.02,1.88-.51,3.11-1.23,3.88-.71.76-1.66,1.08-2.64,1.15ZM91.69,220.6h.23v-3.39c.73-.21,1.41-.58,1.98-1.18.83-.89,1.39-2.27,1.42-4.35,0-.4,0-.82-.04-1.26v-.02c-.24-1.67,0-3.23.45-4.5.57-1.62,1.47-2.75,2.12-3.01l.02-.64c-.24-.12-.48-.21-.72-.28-1.58-.46-3.08.04-4.31.92-1.2.86-2.15,2.09-2.64,3.12-.12.26-.22.51-.29.74-.66,2.28-.72,3.84-.48,4.9.18.8.54,1.33.95,1.66.13.11.26.19.4.26h-.06c-.86.04-1.84-.52-1.97-3.2-.07-1.54.35-3.11.96-4.47.79-1.77,1.89-3.13,2.61-3.54v-.61c-.62-.31-1.2-.51-1.74-.62-1.11-.23-2.05-.05-2.85.44-.78.48-1.41,1.25-1.9,2.22-.15.3-.29.62-.42.97-.1-1.01-.31-2.05-.66-3.01-.49-1.37-1.28-2.57-2.45-3.31h-.37c-1.17.74-1.95,1.95-2.44,3.31-.35.96-.56,2.01-.66,3.01-.13-.34-.27-.66-.42-.97-.49-.97-1.12-1.74-1.9-2.22-.8-.49-1.74-.67-2.85-.44-.54.11-1.11.31-1.73.62v.61c.71.4,1.8,1.77,2.59,3.54.61,1.35,1.03,2.93.96,4.47-.13,2.68-1.11,3.25-1.96,3.21h-.05c.13-.07.26-.15.38-.25.4-.33.76-.84.95-1.63.25-1.06.21-2.63-.47-4.96-.07-.23-.16-.48-.29-.74-.5-1.04-1.44-2.27-2.64-3.12-1.23-.88-2.73-1.38-4.31-.92-.24.07-.48.16-.72.28l.02.64c.65.26,1.55,1.38,2.12,3.01.45,1.27.69,2.83.45,4.5v.02c-.04.44-.05.86-.04,1.26.03,2.08.59,3.46,1.42,4.35.56.59,1.23.96,1.94,1.17h-.34v3.4h.42v10.29h-15.24v-33.83h50.03v33.83h-15.45v-10.29ZM5.32,257.03l-.45-36.56c.21-10.35.46-20.69,1.19-30.91.73-10.17,1.93-20.17,4.07-29.86,2.07-9.43,5.02-18.55,9.27-27.22,4.13-8.45,9.49-16.48,16.46-23.97,3.23,4.13,6.17,8.33,8.84,12.59,2.91,4.64,5.5,9.34,7.8,14.08,2.31,4.77,4.35,9.63,6.11,14.51,1.83,5.05,3.37,10.12,4.62,15.09-.07.04-.14.08-.21.11v24.41h0v.14c-2.11.24-2.83,1.61-3.74,3.26-.73,1.33-1.53,2.74-3.21,3.45v34.74h-5.59c.17-.02.35-.03.52-.06h.02c1.58-.28,2.65-1.09,3.33-2.22.74-1.25.97-2.9.82-4.68h0c-.05-.57-.25-1.16-.55-1.74-.4-.71-1.5-2.16-2.51-3.12-.24-.23-.48-.45-.74-.68-.03-.07-3.54-2.79-5.36-4-.94-.68-1.71-1.33-2.33-1.93-.53-.52-.95-1.01-1.29-1.45,1-.93.83-2.7.83-2.7,0-.04-.1-.5-.34-.72.54.2.98.38,1.27.54,0,.09.04.32.05.34h0c.03.07.47,1.18,1.78,1.59.08.02.17.02.24-.01.19.25.37.53.52.85.21.44.38.95.46,1.54.1,1.01.31,1.77.54,2.34.41,1.01.93,1.46,1.1,1.55h.01c.19.11.35.07.5,0,.14.14.33.27.6.27h0c.18,0,.36-.05.51-.17.12.1.27.16.44.16.04,0,.08,0,.13-.01.14-.02.24-.05.32-.08.07.25.12.5.17.74.04.17.07.33.11.47.03.13.14.23.26.26.59.15.92-.12,1.06-.66.17-.68-.08-1.97-.46-3.3.05,0,.11,0,.16,0,.24,0,.47-.05.67-.12.22-.08.4-.2.5-.32.08-.1.13-.21.13-.33,0-.05-.01-.1-.03-.15-.07-.18-.18-.27-.33-.39-.15-.12-.36-.29-.59-.71-.07-.17-.71-1.73-.88-2.9,0-.26-.05-.51-.14-.75-.09-.26-.23-.5-.39-.72v-.02c-.3-.33-.67-.75-1.15-1.17-.36-.32-.78-.63-1.26-.89,0-.04,0-.07-.01-.11l-.02-.05s-.56-1.22-2.72-1.12c-.07,0-.12.02-.18.06-.02,0-.05.03-.09.05-.59-.26-1.31-.62-2.59-1.26h-.01c-.11-.06-.21-.11-.31-.16.81-1.67,1.39-3.1,1.79-4.33.6,1.41,1.27,2.87,1.9,4,.52.92,1.44,1.84,1.58,1.95.36.28,1.36.39,1.73.28,2.88-.53,3.73-5,4.27-7.88.15-.8.28-1.47.42-1.87l.02-.05c.15-.58.42-1.11.66-1.58l.04-.08c.06,0,.11,0,.17,0,.09,0,.16-.04.22-.09.13-.11,1.02-.89,1.39-2.09.02-.06.02-.12,0-.18.05-.03.1-.07.15-.11.73-.55,1.45-.95,2.09-1.3.99-.55,1.79-1,2.22-1.73.83-1.42.3-3.94-.06-4.48.22-.44.09-.92.09-.92-.35-1.39-1.37.08-1.37.08-.8,1.29-1.51,2.04-2.06,2.47.11-.24.19-.5.24-.74.2-1.01-.35-1.64-.35-1.64-1.11-.99-1.42.47-1.37.7.06,1.01-1.06,1.85-1.21,1.96-1.82.93-2.06,3.23-2.09,3.62-.05,0-.11,0-.16.03-.02,0-.04.02-.06.04,0,0-.93.62-1.33,2.12-.02.07-.01.15.01.21.01.03.04.12.11.24-.49.83-1.02,1.75-1.5,2.6-.23-.44-.59-.74-.7-.83l-.15-.4c-.6-1.56-1.38-3.63-2.77-5.91.21-.59.26-1.16.27-1.3.01-.1-.02-.21-.1-.29-.14-.14-.36-.14-.5,0-.05.05-.16.08-.26.11h0c-.34.12-.85-.13-.85-.13,1.98-.58,4.02-2.37,3.82-7.37-.17-4.32-2.56-9.3-6.02-14.02-3.93-5.36-9.27-10.42-14.35-13.82-.16-.11-.38-.06-.48.1-.06.09-.07.2-.04.29.05.17,1.67,5.79-1.28,13.93-.29.8-.56,1.64-.8,2.49-1.07,3.85-1.59,8.1-1.41,11.54.16,3.1.91,5.57,2.33,6.59-.02,0-.05,0-.07,0-.2,0-.41,0-.49-.08-.14-.14-.36-.14-.49,0-.08.08-.12.2-.1.31.02.16.16,1.18.64,2.04-.04.27-.09.57-.1.9-.01.35.01.72.11,1.12l.03.2c.25,1.62.55,3.48,1.7,5.94-.1.06-.17.16-.18.28,0,.05,0,.1.02.14.06.21.6,2.12,1.6,2.87.16.48.77,2.56-.05,4.28-.19.08-.56.26-1.06.57-.65.05-4.05.47-5.79,3.95-.42.84-.51,1.54-.37,2.14.07.31.2.58.36.82-.11.22-.22.44-.31.65-.05.11-.1.22-.14.34-.01.02-.02.04-.02.06h0c-.07.18-.13.37-.18.56h0c-.13.38-.27.75-.42,1.11-.18.42-.37.83-.56,1.22h0s-.19.43-.19.43c-.03-.08-.06-.15-.08-.2v-.02s-.02-.03-.05-.09c-.13-.39-.24-.8-.32-1.21-.13-.68-.16-1.39-.08-2.09,0-.02,0-.04,0-.06,0-.29.02-.53.05-.77.02-.2.04-.39.04-.58.23-1.41.69-1.77.71-1.79.14-.13.16-.35.03-.49-.15-.16-.29-.31-.44-.44.17-.61.37-1.68.35-2.76-.02-.8-.15-1.6-.51-2.24-.28-.5-.66-.77-1.06-.93-.38-.15-.77-.17-1.08-.17h-.05c-.35.05-.68.18-.98.35-.31.18-.58.42-.79.68l-.02.03c-1.31,1.72-3.56,2.04-3.79,2.07h0s-1.28.11-1.74.91l-.02.04c-.17.4-.6.5-.71.52-.58,0-1.2.12-1.64.38-.2.12-.37.27-.49.45-.13.19-.2.42-.2.67s.07.52.22.82c-.02.06-.03.13-.04.19-.04.28,0,.57.12.82.11.23.27.42.47.54-.12.75.54,1.25.91,1.46-.03,1.11,1.79,1.5,1.8,1.5.04,0,.07.01.11,0,.19-.02.33-.19.31-.38-.23-2.17,2.33-2.83,2.71-2.92.11.34.17.65.19.71-.05.15-.1.31-.15.47-.12.37-.24.75-.35,1.13-1.79.46-2.33,1.88-2.33,1.89-.07.18.02.38.19.45.05.02.1.03.15.02.13,0,1.11.07,1.01,2.15,0,0,0,.02,0,.03-.06.4-.12.82-.18,1.24-1.42-.84-2.72-.72-2.82-.71-3.39.24-4.36-1.42-4.43-1.55-.07-.13-.21-.21-.36-.19-.19.03-.32.2-.3.39.56,3.95,1.6,4.59,2.47,5.13.51.31.94.58,1.11,1.84h0c.05.42.07.85.1,1.27.17,2.78.34,5.58,5.74,7.37h-6.34l-3.23,4.11.59.32c.5.27,1.36.73,1.01,1.51-1.47,3.07-2.14,6.2-2,9.51.14,3.3,1.07,6.77,2.81,10.53l.07.14-2.78.02ZM14.04,228.39c.65,1.27,1.64,1.72,2.92,2.06h0c3.18.77,7.34-1.79,7.62-1.97.89-.58,2.11-1.48,3.46-2.68.93-.83,1.94-1.81,2.95-2.93.16.4-.07,1.24-.32,2.19-.16.59-.33,1.22-.42,1.84-.44.44-3.46,3.25-7.91,3.99h-4.33c-.32-.05-.64-.12-.97-.19-6.55-1.62-6.72-4.43-6.89-7.21-.03-.44-.05-.87-.1-1.3v-.03c-.22-1.57-.78-1.93-1.44-2.33-.66-.41-1.43-.89-1.95-3.5.75.57,2.07,1.17,4.26,1.01h.02s1.28-.15,2.64.77c-.04.29-.07.58-.1.87-.11.99-.18,1.99-.17,2.96-.14,3.32.13,5.25.74,6.45ZM14.65,208.36c.08.05.15.14.21.24-.69.18-3.03.95-3.13,3.13-.4-.14-.97-.41-.81-1.04.13-.7.6-1.11.6-1.11.13-.08.34-.25.26-.38-.08-.13-1.08.36-1.34,1.15-.74-.09-.37-.87-.37-.87.04-.03.69-1.16,1.38-1.08.15.02-.05-.3-.2-.34-.27-.07-.6.04-.9.26-.23.17-.45.41-.61.68,0,0-.02,0-.02-.01-.1-.05-.18-.14-.23-.26-.06-.13-.08-.27-.06-.41,0-.06.03-.11.06-.17h0c.11-.25.54-.51.78-.61.31-.13.61-.17.77-.13.15.04.3-.05.34-.2.04-.15-.85-.24-1.27-.05-.26.11-.57.15-.77.38-.05-.13-.07-.24-.07-.33,0-.11.03-.21.09-.29.06-.09.15-.17.27-.24.34-.2.83-.29,1.31-.29.03,0,.06,0,.09-.01.18-.03.92-.21,1.23-.91.28-.48,1.19-.55,1.19-.55h.03c.27-.04,2.78-.4,4.26-2.34h0c.16-.21.37-.39.6-.53.21-.12.45-.21.7-.25.24,0,.54.02.81.13.26.1.52.28.7.61.3.53.41,1.22.42,1.91.02.84-.12,1.68-.25,2.26-3.08-2.19-5.88.88-6.09,1.11-.02.02-.03.03-.04.05-.11.16-.06.38.1.48ZM20.98,207.89c-.19.26-.43.72-.6,1.5-.85-.38-2.79-1.03-4.48-.05-.11-.39-.29-.91-.56-1.27.73-.71,3.17-2.67,5.65-.18ZM20.21,213.14c-.69-.7-1.75-1.42-3.3-1.65h-.01c-.49-.07-.92-.08-1.31-.05.08-.27.17-.53.25-.79.06-.19.13-.38.18-.57,1.61-1.12,3.63-.28,4.25.03,0,.11-.02.23-.03.34-.02.26-.05.53-.05.82-.07.63-.06,1.25.02,1.87ZM16.81,212.18h0c2.58.38,3.61,2.27,3.82,2.72.09.28.2.55.32.82.02.04.03.09.04.13-.1.22-.2.44-.31.67-2.98-1.82-5.16-1.29-6.13-.87-.04-1.57-.71-2.12-1.21-2.32.38-.54,1.35-1.46,3.45-1.16ZM29.52,151.26c4.79,3.34,9.74,8.11,13.44,13.15,3.39,4.62,5.72,9.46,5.89,13.63.27,6.66-3.8,7.02-5.61,6.86-.35-.07-1.06-.21-1.82-.4-.85-.46-.76-1.57-.71-1.9,1.53-.09,2.35-.73,2.73-1.04l.12-.09s.04-.03.05-.05c.12-.04.24-.09.34-.16.22-.15.4-.36.49-.64.09-.28.09-.63-.04-1.05,0-.01,0-.02-.01-.03.05-.02.2-.16.24-.25.05-.1.15-.45-.07-.63.12-.13.17-.25.17-.35,0-.11-.01-.21-.16-.31-.05-.03-.07-.1-.13-.12,0-.03,0-.05-.01-.08-.08-.21.2-.35.23-.38.2-.19.41-.43.33-.84-.06-.34-.34-.78-1.05-1.38h0c-.39-.35-.65-.7-.85-1.12-.21-.43-.37-.95-.55-1.62v-.02c-.05-.13-.09-.25-.14-.37.1-.05.18-.12.22-.21v-.03c.27-.68.03-1.14-.14-1.35.01-.41-.06-1.41-.98-2.09-.45-.32-.73-.66-.84-1-.11-.32-.07-.67.12-1.04.09-.17.02-.38-.16-.47-.09-.05-.19-.05-.28-.02,0,0-.71.27-1.37.92-.03-.21-.09-.43-.17-.65-.08-.2-.18-.41-.3-.61.01-.05.02-.1.01-.16,0-.02,0-.04,0-.06l-.43-.95c-.17-.11-.57-.05-.57-.05l-.05-.05c-1.14-.89-.97-2.63-.97-2.64,0-.06,0-.13-.04-.19-.09-.17-.3-.24-.47-.15-.24.13-.45.28-.62.45-.28-.77-.91-2.05-2.23-3.3.17-.28.5-.92.32-1.53v-.04c-.34-.77-1.47-1.28-1.47-1.28h-.01c-.18-.08-.38,0-.46.18,0,0-.51,1.12-.29,1.89v.04c.25.54.81.82,1.16.94-.1.48-.39,2.05-.17,3.74-.39-.15-.67-.2-.67-.2-.12-.03-.24,0-.33.1-.13.14-.12.36.02.49.9.83.58,2.43.54,2.59l-.03.11c-.16.02-.29.11-.38.23-.1.13-.15.31-.15.48,0,.02,0,.04,0,.06l.09.55s.02.07.03.1c.04.07.07.13.11.18-.06.68.02,1.17.12,1.52-.45-.09-.97-.13-1.59-.1-.19,0-.34.17-.33.37,0,.07.03.13.07.19,0,0,.45.59.13,1.62h0c-.1.36-.15.71-.15,1.07s.05.71.15,1.06l.02.05c.07.19.16.36.27.56-.57.04-1.32.23-2.23.74-.17.09-.23.31-.13.48.07.12.2.19.33.18,0,0,1.01-.08,1.82.88l.02.02h0c.1.1.17.26.23.4.02.05.05.1.07.16.05.1.11.21.19.32-.06,0-.12.02-.17.06-.16.11-.2.33-.08.48l.1.14c.14.2.32.46.53.72-.44-.18-.85-.32-1.17-.42l-.15-.05s-.08-.02-.12-.02c-.08,0-.16.02-.22.06-.08.05-.14.12-.17.2l-.02.05c-.02.08-.02.16.01.24.03.08.07.16.15.23l.02.02c1.1.95.62,1.77.58,1.84-1.03,1.44-.4,2.89-.4,2.9h0c.29.7.73,1.06,1.17,1.23-.13.04-.25.06-.37.1-.49.13-1.06.27-1.62.49-.03-.01-.07-.02-.1-.03-1.55-.56-2.35-3.05-2.52-6.32-.18-3.37.33-7.53,1.38-11.32.23-.84.49-1.65.78-2.44,2.37-6.54,1.85-11.54,1.49-13.48ZM57.72,183.19c0-.06-.05-.3.08-.21.03.03.06.06.08.09.21.26.26.65.19,1.06-.08.44-.31.9-.63,1.27l-.02.02c-.08.09-.16.17-.26.25-.15.12-.17.34-.05.49.08.1.22.15.34.12.26-.04,1.86-.37,3.72-3.37l.02-.05c.08-.15.32-.6.3-.52l.02.16c-.03.25.19,1.49-1.64,2.91-.41.32-.83.74-1.41,1.18-.09.07-.11.2-.04.29.07.09.2.11.29.04.59-.45,1.06-.84,1.45-1.21.33-.32,1.41-1.55,1.64-1.86.25.59-1.23,2.55-2.78,3.56-.1.06-.12.19-.06.29.06.1.19.12.29.06,1.27-.83,2.38-2.48,2.66-3.02.05.14-.18,1.01-.38,1.29-.18.4-.76,1.45-2.23,2.29-.1.06-.13.19-.08.29.06.1.19.13.29.08,1.05-.6,2.08-2,2.44-2.54,0,.48-.33,1.24-.52,1.48,0,0-.62,1.08-2.02,1.54-.72.23-1.46.6-2.23,1.18h0c-.35.27-.79.39-1.23.34-.43-.04-.84-.23-1.14-.57-.16-.2-.27-.39-.33-.57-.06-.17-.08-.34-.04-.51,0-.03,0-.05,0-.08.01-.24.18-2.3,1.74-3.08l.05-.03c.06-.04,1.63-1.15,1.52-2.61v-.05ZM56.55,191.51c-.3.59-.69.99-.87,1.15-1.62.02-2.37-.78-2.67-1.26-.01-.03-.03-.06-.05-.08-.04-.07-.07-.12-.09-.17.19-.65.49-1.09.72-1.34.86,1.56,2.17,1.75,2.96,1.7ZM54.9,193.31c-.23.46-.48.97-.62,1.54-.15.44-.35,1.13-.44,1.97-.9,8.11-4.28,7.61-4.93,7.15-.33-.1-.82-.78-1.36-1.73-.6-1.05-1.23-2.43-1.8-3.78,1.35-.12,2.36-.44,3.09-.83-.1.2-.2.39-.28.59-.19.44-.26,2-.1,1.9.2-.12.29-.32.34-.5.09-.35.22-.72.39-1.11.18-.4.4-.82.67-1.27v-.02s.17-.29.37-.66c.4-.46.54-.84.57-.93.05-.1.09-.21.11-.31.53-.95,1.18-2.1,1.8-3.14.41.47,1.09.98,2.18,1.14ZM50.27,195.06c-.24.43-.45.82-.62,1.12-.58.64-1.78,1.44-4.18,1.6l-.1-.25c.13-.48.24-.91.32-1.32.84,0,2.89-.2,4.23-2.13.2.22.42.56.35.97ZM45.81,195.52c.2-1.24.18-2.08.16-2.61,0-.08,0-.14,0-.27.08-.86.29-1.11.9-1.51.16-.1-.26-.28-.45-.21,0,0-1.04.35-1.15,1.68v.03s0,.29,0,.29c.01.53.04,1.39-.19,2.68-.04.05-.07.1-.09.17l-.32,1.54c-.04.07-.06.15-.05.23v.02c-.4,1.36-1.02,3.02-2.01,5.04-.32-.15-.61-.28-.89-.39-.04-.96.17-2.15.35-3.13.12-.66.22-1.23.22-1.59,0-.01,0-.02,0-.04.58-1.85,1.15-4.22.73-5.46-.05-.17-.11-.33-.18-.49.09.02.18.05.28.07.02,0,.03,0,.05.01,2.29.29,3.01-1.17,3.11-1.38.02-.05.04-.1.04-.16,0-.19-.16-.34-.35-.35-1.03-.04-1.6-.88-1.64-.97.09,0,.17,0,.26,0,.47-.01.93-.09,1.34-.3.36-.15.64-.41.85-.71,1.21,2.08,1.93,3.96,2.49,5.41l.15.4c-1.1,1.71-2.83,1.95-3.63,1.97ZM52.09,217.48s-.87-3.28-1.09-3.93c-.19-.57-.36-1.07-.4-1.22-.03-.11-.14-.18-.25-.15-.11.03-.18.14-.15.25.04.16.22.67.41,1.25.21.62.37,1.05.48,1.44.22.78-.13.86-.13.86-.22.05-.36-.56-.54-1.22-.16-.62-.37-1.39-.65-2.1-.04-.11-.16-.16-.27-.12-.11.04-.16.16-.12.27.27.69.47,1.45.64,2.05.38,1.38-.02,1.29-.02,1.29-.2.03-.54-1.12-.54-1.12-.13-.34-.2-.52-.69-1.99-.04-.11-.15-.17-.26-.13-.11.04-.17.15-.13.26.5,1.49.88,2.73.88,2.73-.09-.04-.51-.57-.85-1.41-.21-.52-.4-1.22-.5-2.16h0c-.09-.68-.28-1.26-.52-1.77-.26-.54-.58-.98-.91-1.33.1-.85.51-2.58,2.1-3.28.55.25,1.02.6,1.42.95.44.39.8.78,1.06,1.1.12.16.21.34.28.52.06.17.1.36.1.54v.05c.19,1.33.94,3.11.95,3.12l.02.04c.29.53.55.76.74.91,0,0-.46.37-.87,0-.95-.84-1.58-3.48-1.6-3.72-.02-.19-.11.3-.13.49-.08.59,2.76,6.91,1.56,7.52ZM45.77,209.19v.02c-.61-.33-.85-.82-.91-.96-.22-1.65,1.25-3.38,1.71-3.33.91-.02,1.41.21,1.68.42-1.89.85-2.36,2.88-2.48,3.85ZM44.15,207.36c-.91-.41-2.51-.95-4.14-1.49,0,0-2.4-.81-3.1-1.07h-.01c-2.62-.88-3.93-3.5-3.93-3.51,0-.02-.02-.03-.03-.05-.37-.51-.71-.99-1.03-1.45-.2-.29-.39-.58-.57-.86.96-.08,2.5-.39,3.74-1.51.24.63.65,1.34,1.09,1.98.61.88,1.3,1.67,1.78,2.04h.01c.44.32.89.47,1.54.69.79.26,1.91.64,3.74,1.55h0c1.06.53,1.74.88,2.28,1.13-.56.5-1.25,1.35-1.39,2.54ZM46.35,220.95c-.84-.39-1.71-.75-2.57-1.07.78-.11,1.64-.41,2.35-1.08.14-.13.18-.58.02-.49-.28.15-.7.5-.87.59-1.65.93-3.93.41-4.26.03l2.2-1.27c.07-.04.13-.1.16-.17.07-.18-.01-.38-.19-.46,0,0-.32-.13-.71-.42.48-.28,1.45-.94,2.41-2.18.23.18.47.36.72.54h0c1.76,1.18,3.51,2.43,4.98,3.69-1.16,2.11-3.57,2.29-4.23,2.3ZM51.12,219.13c.17.15.33.3.49.45.96.91,1.74,1.81,2.24,2.69-.63,1.24-2.26,1.61-2.78,1.7-.94-.91-2.18-1.72-3.55-2.44,1.12-.22,2.67-.81,3.61-2.4ZM34.82,209.35c.43.25.85.47,1.21.66.46.51.76,1.19.94,1.92-1.05-.1-1.99-.31-2.81-.59-.82-.29-1.53-.65-2.11-1.06.53-.44,1.08-.99,1.64-1.66.36.26.74.51,1.12.73ZM34.17,208.03c.61-.79,1.22-1.73,1.83-2.85.22.1.44.19.67.27.67.25,1.47.52,2.3.8.21,1.2.54,2.12.89,2.83l-.1-.1c-.48-.49-.98-1-1.82-.89h0c-1.03.15-1.6.76-1.85,1.12-.59-.3-1.28-.66-1.92-1.18ZM33.94,211.99c.85.3,1.81.52,2.88.62-.68,1.82-1.69,3.2-3.15,4.05-.34-.02-.72,0-1.16.07h0c-.23.03-.43.09-.61.16-.19.08-.37.18-.52.29-.18,0-.36-.02-.55-.05-.21-.03-.44-.08-.67-.12h0c-2.06-.55-2.82-1.69-3.57-2.8-.7-1.05-1.4-2.08-3.01-2.67h0c.06-.14.12-.26.18-.39.23.19.49.36.77.5,1.2.6,2.74.72,3.22.63.44-.05,1.64-.2,3.18-1.18.18-.11.36-.24.55-.38.67.49,1.49.93,2.46,1.26ZM36.09,215.04c-.11.2-1.11,1.79-1.21,1.95-.03-.01-.21-.1-.24-.11-.04-.02-.09-.03-.13-.05.19-.15,1.42-1.63,1.58-1.79ZM36.25,215.59c.3-.59.63-1.29.97-2.12.11,1.37-.04,2.55-.04,2.55v.02c-.05.71.11,1.27.38,1.71-.49-.13-1.14-.23-1.96-.2-.09-.1-.19-.19-.29-.27.26-.43.58-.99.93-1.69ZM35.96,218.24c1.53.02,2.21.46,2.38.6.61,1.63.08,3.9-.23,4.92-.75-.68-1.51-.8-2.16-.7-.03,0-.06,0-.09.02-.11.02-.21.05-.31.08.9-1.89.6-4.02.4-4.92ZM37.88,216.1c.02-.2.5-4.38-1.24-6.45.16-.24.58-.74,1.39-.86.5-.06.88.32,1.24.69l.13.13c.32.37.61.86.76,1.46.13.5.17,1.08.06,1.73v.04c-.35,2.58,1.22,3.97,2.11,4.53l-2.2,1.27c-.5-.11-2.39-.66-2.26-2.54ZM39.15,219.11c1.12.31,2.39.7,3.68,1.16-1.06.42-2.77,1.3-3.83,2.85.25-1.1.47-2.66.15-4.01ZM43.84,220.66l2.17.96c-3.57,1.32-4.14,4-4.22,5.05-1.56-.25-2.44.22-2.91.68-.9-4.79,4.13-6.45,4.96-6.69ZM42.01,216.23c-.66-.64-1.32-1.7-1.1-3.32h0c.13-.76.09-1.44-.07-2.03-.06-.23-.14-.44-.23-.64.41.5.79.77,1.01.9.01.03.02.05.04.07.38.52.87,1.11,1.52,1.74.37.36.78.74,1.26,1.12-1.08,1.4-2.15,2-2.43,2.14ZM39.73,206.51l.07.02c.77.26,1.53.51,2.21.75.54.53.51,1.16.51,1.16.02.28.05,1.46-.61,2.06-.44-.28-1.62-1.25-2.18-3.99ZM31.13,199.88c.07.1.14.21.21.31.32.47.66.95,1.02,1.44.06.12.38.71.96,1.41-.17.41-.65,1.53-1.39,2.71-.21-.29-.41-.6-.59-.92-.23-.43-.44-.89-.61-1.41.58-1.21.54-2.55.39-3.53ZM34.72,190.82c-.35.31-.63.55-.93.72-.28.17-.59.29-1.01.38-1.5.27-2.37-.27-2.79-.69h0c.2-.06.4-.14.56-.24h.02c.63-.48.89-1,1.07-1.35.04-.09.08-.16.12-.22h0c.35-.56.47-.73.73-1,.03.03.06.07.09.11h0c.49.55,1.03,1.01,1.62,1.39.2.13.48.29.79.46-.06.15-.14.29-.28.43ZM34.96,191.54c-.12.26-.21.54-.28.83-.09.35-.13.72-.13,1.09-.07-.24-.12-.49-.16-.7-.03-.14-.12-.57-.12-.67,0,0,.42-.31.7-.55ZM34.58,189.34c-.51-.37-1.03-.76-1.47-1.26-.06-.08-.4-.45-.63-.89-.62-1.04-.96-2.15-1.12-2.74.4-.01.8-.08,1.07-.13.26.8.65,1.56.96,2.18l.15.3s.02.04.03.05c.31.46.67.9,1.09,1.26.38.33.8.61,1.28.8.91.38,1.87.48,2.71.36.91-.13,1.71-.52,2.19-1.11h.01c.75-1.04.85-2.23.84-2.89.14.03.27.06.4.09.04.03.09.06.14.07,0,0,.31.08.79.14-.18,1-.42,1.82-.75,2.48-.31.64-1.31,1.54-1.91,2-.09.07-2.75,1.48-5.77-.72ZM30.24,178.52c.81.3,1.75.74,2.13,1.35h0c.19.29.3.55.36.78.08.32.05.57-.04.76-.08.18-.2.3-.3.37h-.01s-.05.04-.07.04c-.03,0-.05.02-.08.03,0,0-.71.38-1.01-.34-.04-.1-.06-.17-.06-.17h0s-.02-.05-.03-.08c0-.37.46-.41.46-.41.19-.02.33-.19.31-.38-.02-.19-.19-.33-.38-.31,0,0-1.43.13-1.04,1.46.01.05.04.09.07.13.05.13.1.25.16.34.29.53.89,1.26,2.04,1.42-1.07.46-2.33.44-2.81-.75,0,0-.48-1.11.33-2.24l.02-.02c.07-.11.56-.97-.06-1.99ZM30.54,169.18c2.01.04,2.62.99,2.81,1.46.07.48.33.85.56,1.1-.64.25-1.22.49-1.71.72-.02-.07-.06-.14-.13-.18-.13-.08-.3-.03-.38.1,0,0-.1.16-.15.39-.32.15-.57.28-.75.38l-.03-.05c-.1-.18-.19-.34-.23-.48h0c-.08-.3-.12-.59-.12-.88s.04-.58.12-.87c.22-.72.14-1.3.02-1.69ZM32.63,163.31c.61.33,1.28.85,1.55,1.67l-1.69.34c.07-.4.16-1.32-.17-2.16,0,0,.18.08.31.15ZM32.6,157.97c-.23-.08-.57-.25-.71-.54-.08-.31.03-.74.13-1.04.27.16.63.42.77.72.08.3-.07.65-.19.86ZM32.97,159.26c1.31,1.37,1.75,2.68,1.88,3.14-.27.47-.42.98-.51,1.44-.39-.5-.9-.87-1.37-1.13-.25-1.36-.12-2.7,0-3.45ZM37.3,165.06c.11.12.22.24.32.37l-5.41,1.18c.03-.17.07-.35.11-.54l4.99-1.01ZM34.94,164.83c0-.46.09-1.31.48-2.02.12-.19.31-.45.4-.54.05.61.25,1.51.87,2.21l-1.75.36ZM37.94,166.07s.05,0,.08,0c.05.1.1.21.14.31.19.51.22,1.01.06,1.44,0,.01,0,.02-.01.03-.11.23-.2.48-.27.75-.23-.18-.45-.26-.47-.26-.97-.41-2-1.17-2.18-1.31-.06-.06-.15-.09-.24-.09-.19,0-.35.16-.35.35,0,.32-.1.48-.38.91-.17.26-.39.61-.68,1.13-.06.1-.1.2-.14.29-.23-.26-.54-.51-.97-.71-.37-.2-.49-.41-.42-1.55l5.83-1.28ZM38.52,169.42h0c.05-1.32.8-2.11,1.39-2.53-.02.24.01.48.09.71.16.49.52.93,1.09,1.34.54.39.67.93.69,1.27-1.07-.06-2.16.03-3.22.21.07-.41.04-.74-.04-1.01ZM41.96,170.93c.07.1.14.3.03.62-.06-.01-.52-.02-.81,0-1.54.09-4.42.25-7.24,2.14-.09-.03-.18-.06-.28-.09-.23-.06-.49-.11-.77-.15h-.03c-.35-.03-.54-.11-.65-.22,2.07-.97,6.1-2.56,9.75-2.29ZM44.35,178.57c-.25-.08-.63-.07-.98-.04-.14.01-.47.06-.62.07l.2-.12c.2-.14.43-.35.67-.39.09-.02.36.13.41.16.03.03.34-.2.34-.2.05,0,.08.08.13.2.03.06-.04.23-.16.33ZM44.39,179.05c-.06.21-.26.21-.35.23-.33.02-.66-.04-.97-.15-.16-.06-.53-.27-.66-.35.26,0,.75-.05.99-.06.36-.03,1.1-.07.98.34ZM44.34,177.06h0c-.15.11-.39.1-.52.1-.15,0-.3-.09-.39-.15-.06-.04-.15-.05-.2,0-.27.31-.56.08-.58.05h0c-.12-.14,0-.5.32-.6-.03-.09-.13-.14-.22-.11-.29.1-.44.32-.46.54-.01.11-.04.45.29.56,0,0,.42.16.76-.1.11-.09.29.1.45.11.05,0,.1,0,.15,0-.03.12.03.48.03.48,0,0-.35-.14-.51-.08-.17.03-.43.22-.65.37-.6.42-1.15.26-1.5.06-.09-.03-.01.28.19.36.24.1.33.13.51.15,0,.01.01.02.02.03.22.25.55.47.92.61.31.12.64.18.98.18,0,.03,0,.05.01.08.1.31.1.56.04.75-.05.17-.16.3-.29.38-.14.09-.31.14-.47.16-.2.01-.47.07-.85-.05-.13-.04-.05.26.06.34.1.07.22.12.35.15-.44.29-1.15.63-2.25.67-.06,0-.48,0-.59,0-.67-.05-1.39-.3-2.07-.71-.67-.4-1.85-1.71-1.85-1.71-.05-.06-.78-.99-.95-2.34,0-.02-.17-.7-.09-1.41,0-.03.02-.42.09-.73.13-.49.41-1.16.81-1.82,2.14-.98,4.16-1.09,5.35-1.16.27-.02.51-.03.7-.05.06.12.11.26.15.4.19.7.35,1.24.58,1.71.23.48.53.87.96,1.26l.02.02c.61.51.84.85.88,1.09.03.18-.08.3-.18.4ZM34.47,177.32c.02.1.03.2.05.3.13.77.41,1.4.65,1.83,0,0-1-.95-1.12-1.06h0c-.15-.15-.27-.3-.38-.45-.3-.43-.47-.9-.49-1.32-.02-.39.08-.75.33-1,.04-.04.08-.08.13-.11.5-.3.71.27.76.43-.06.61.02,1.13.07,1.37ZM34.6,174.08c.17-.11.33-.2.5-.3-.1.21-.18.41-.25.6-.07-.11-.15-.21-.25-.3ZM34.12,179.57c.09-.03.17-.07.25-.12l.06.06s.05.97.04,1.35c-.47.06-.82-.13-1.05-.33v-.04c-.08-.26-.19-.55-.38-.86.16.06.55.05.55.05.18,0,.36-.03.53-.1ZM34.45,181.21c-.03.35-.08.64-.16.89-.05.15-.11.29-.18.42-.57-.07-.82-.36-.92-.58.05-.08.1-.16.14-.26.09-.2.14-.43.14-.7.26.15.58.26.98.22ZM33.78,182.81c-.68.09-1.19-.01-1.57-.2.15-.04.26-.09.31-.12.07-.02.15-.06.23-.11h.02c.06-.05.12-.1.19-.16.14.22.39.47.82.59ZM33.57,183.98c.65-.27.89-.59.96-.71l.02-.05s.02-.07.03-.11c.16-.22.29-.48.39-.79.17-.54.24-1.24.2-2.18.2.12.38.14.59.06.53.66,1.17,1.21,1.84,1.62.75.45,1.54.72,2.29.78h.12c-.06.52-.07,1.8.97,2.45.04.44.06,1.67-.68,2.69-.37.45-1,.75-1.74.86-.73.1-1.56.01-2.35-.32h0c-.4-.16-.75-.39-1.08-.68-.37-.32-.69-.7-.96-1.11l-.15-.29c-.3-.59-.67-1.31-.91-2.04.17-.05.33-.1.47-.18ZM34.06,170.59c-.04-.26,0-.57.2-.93.28-.5.5-.84.66-1.09.18-.29.31-.48.39-.68.46.32,1.21.8,1.91,1.09h.02s.96.32.58,1.59c-1.12.23-2.2.56-3.16.9-.1-.07-.42-.31-.55-.7,0-.04-.02-.1-.04-.18ZM31.4,174.33c.08.38.27.73.65.99.13.09.3.05.39-.08.09-.13.05-.3-.08-.39-.38-.25-.72-.94-.5-1.46.36.81,1.66.62,2.11.91l.03.02c.25.14.41.35.49.58.02.05.03.1.04.16-.25-.23-.63-.35-1.17-.02l-.03.02c-.07.05-.14.11-.21.17-.36.36-.52.87-.49,1.42.03.52.23,1.09.6,1.61.13.18.27.36.44.52l.02.02.14.14c-1.37.25-2.03-.81-2.52-1.44.35.03.94-.12,1.01-.14.18-.06.28-.26.22-.44-.06-.18-.26-.28-.44-.22-.08.03-.17.05-.25.07-.18-.02-.34-.09-.47-.19-.25-.18-.42-.44-.51-.62l-.06-.13c-.09-.19-.19-.42-.37-.61-.39-.46-.83-.73-1.23-.89,1.26-.43,2-.1,2.2.02ZM40.98,199.58c-.3-.18-.81-.49-1.41-.89-.03-.03-.06-.05-.09-.06-1.03-.69-2.3-1.62-3.17-2.52-.06-.06-.13-.12-.19-.21-.38-.42-.79-1.24-.79-1.24-.25-.72-.28-1.46-.1-2.15.16-.62.38-1.13.82-1.6.06.03.13.06.19.08-.24.32-.39.68-.47,1.08-.13.64-.07,1.35.13,2.02h0c.59,1.67,4.61,4.01,4.63,4.02.13.08.3.03.38-.1,0-.01.02-.03.02-.05.06-.15.68-1.67,1.06-3.21h0s.01-.06.02-.08c.25-1.02.39-2.04.21-2.67v-.03c-.16-.4-.39-.77-.68-1.1-.15-.17-.32-.32-.5-.46l.11-.09c.29.2.56.46.79.75.25.32.45.69.57,1.09h0c.6,1.75-1.06,6.22-1.53,7.42ZM41.34,200.15c-.1.62-.17,1.26-.17,1.85-.59-.23-1.05-.39-1.44-.52-.12-.04-.23-.08-.33-.11.07-.61.13-1.27.2-1.99.8.52,1.37.85,1.37.85.13.07.29.04.37-.08ZM39.08,199.03c-.07.76-.14,1.47-.21,2.14-.17-.08-.33-.16-.48-.26-.2-.16-.46-.41-.73-.72.08-.32.16-.66.24-1.02.05-.23.12-.53.19-.84.34.25.68.49.99.7ZM37.6,197.96c-.07.33-.36,1.66-.41,1.86-.15-.2-1.76-2.27-1.76-3.88.42.55.76.82.76.82.43.41.92.82,1.42,1.21ZM40.66,190.84c.16.12.31.26.45.41.24.27.43.59.56.92.14.5.05,1.3-.15,2.14l-1-.38c.11-.34.21-.7.28-1.06.14-.73.14-1.46-.14-2.04ZM41.41,194.79c-.29,1.09-.69,2.17-.89,2.68-.48-.29-1.49-.93-2.4-1.65l.42-1.08c.52.38.96.65,1.04.7.02.01.03.02.05.03.14.06.31,0,.37-.15.11-.26.24-.58.37-.92l1.05.39ZM40.25,192.78c-.13.71-.41,1.45-.65,2.02-.66-.42-2.28-1.54-2.54-2.34l-.02-.04c-.1-.2-.12-.45-.08-.69h0c.04-.23.12-.44.23-.62.47.09.94.12,1.42.08.47-.04.94-.15,1.41-.33.36.48.36,1.19.23,1.92ZM38.14,194.43l-.41,1.06c-.62-.53-1.14-1.09-1.31-1.56-.18-.58-.23-1.2-.12-1.74.02-.11.05-.22.09-.32-.01.27.03.55.15.79.2.57.91,1.24,1.59,1.78ZM42.29,190.64c-.22-.26-.47-.49-.73-.69.48-.44.96-.96,1.23-1.4.18.08.57.14.57.14,0,0,.47.6.64.81.19.23,1.19.85,1.35.88-.32.32-.94.68-2.07.55-.35-.09-.95-.28-.99-.28ZM46.39,187.07c-.56.93-1.43.97-1.81.98-.4.01-.82-.03-1.23-.08h-.04c-.06,0-.15-.02-.23-.06.25-.62.45-1.34.6-2.18.27,0,.6.03.95.09.31.05.62.13.92.24.12.06.73.22.88.22.06,0,.22-.06.22-.06-.03.13-.16.62-.27.85ZM28.46,185.62h.03c.59-.27,1.24-.44,1.8-.58.18-.05.35-.09.48-.13.19.66.53,1.65,1.1,2.61-.05.06-.11.11-.18.16-.13.1-.29.16-.47.2-.45.09-.94.18-1.42.2-.46.02-.92-.02-1.33-.18h-.02c-.79-.27-1.16-1.39-1.32-2.09.09,0,.19,0,.29,0,.15,0,.32-.02.48-.06.19-.04.38-.09.55-.15ZM27.59,188.18c.18.16.39.29.63.38.51.2,1.06.26,1.61.23.54-.02,1.05-.12,1.52-.21.05-.01.11-.02.16-.04-.09.13-.2.3-.33.51-.05.08-.1.17-.16.29-.15.29-.36.72-.85,1.08-.09.06-.22.11-.35.15-.17.04-.34.07-.46.07-.19,0-.35.16-.35.35,0,.07.02.14.06.2.15.25,1.23,1.9,3.84,1.43h.01c.25-.05.47-.12.68-.2,0,.04.23,1.12.34,1.47-.61.54-2.14,1.64-4.45,1.64-1.23-2.51-1.52-4.4-1.78-6.03l-.03-.2s0-.04,0-.05c-.08-.33-.1-.65-.09-.94,0-.05,0-.09,0-.13ZM34.41,194.41c.52,1.04.63,1.79.66,2.06-1.83,2.01-4.49,1.8-4.49,1.8-.58-.43-1-1.44-1.2-2.04,2.59.04,4.33-1.2,5.03-1.82ZM30.71,205.15c.24.46.5.88.78,1.27-.12.16-.24.32-.36.48-.35.44-.75.86-1.17,1.21-.96-1.41-1.19-2.83-1.25-3.34l.06-.05c.36-.23.99-.59,1.39-.82.16.44.34.86.54,1.25ZM29.39,208.5c-.89.56-1.91.78-3.02.35-.1-.05-.55-.31-.88-.73.89-1.26,1.8-2.19,2.59-2.86.13.74.47,2.01,1.31,3.25ZM25.16,207.4c-.06-.32-.02-.68.18-1.08,0,0,.58-1.01,2.3-1.59-.77.65-1.63,1.52-2.48,2.67ZM30.22,208.78c.54-.41,1-.88,1.46-1.46.32-.4,1.9-3.08,2.17-3.7.42.43.94.87,1.55,1.24-.63,1.16-1.27,2.12-1.9,2.92-3.34,4-6.63,4.89-9.61,2.5-.15-.19-.26-.41-.31-.65-.1-.44-.02-1,.32-1.67.16-.33.35-.63.54-.9-.02.43.22.99.46,1.43.44.59,2.42,2.18,5.33.31ZM26.01,214.6c.82,1.22,1.66,2.47,3.97,3.08h.05s.2.05.2.05c-1.18,1.12-4.69,4.31-5.81,1.98-.08-.17-.22.31-.13.48,1.35,2.36,4.88-.53,6.3-1.83-.02.06-.04.13-.06.19-.19.69-.17,1.48-.07,2.23.07.48.17.95.29,1.34-.82.93-1.64,1.76-2.42,2.5h-.01c-.27.26-.54.47-.82.66-.86.57-1.75.8-2.6.69-.85-.11-1.68-.56-2.42-1.37-.25-.27-.48-.57-.71-.91h0c-1.53-2.23-.75-5.56-.56-6.39.3-1.08.8-1.91,1.05-2.46.2-.4.39-.82.58-1.25.16-.38.49-1.33.52-1.4,1.41.52,2.04,1.46,2.68,2.41ZM21.01,227.9c-1.93-1.34-1.99-3.22-2.03-4.43,0-.2,0-2.2,1.11-3.84-.07,1.4.13,3.04,1.08,4.43.25.38.51.71.78,1.01.86.93,1.83,1.46,2.85,1.59.39.05.78.04,1.18-.03-.67.53-1.27.95-1.77,1.27h0c-.49.33-1.04.49-1.6.49s-1.1-.16-1.59-.49ZM22,229.04c-1.22.55-3.11,1.17-4.86.74-1.11-.3-1.95-.67-2.48-1.7-.56-1.1-.8-2.93-.66-6.12,0,0,.33-4.63.51-5.49.48-.29,2.61-1.34,5.89.7-.29.66-.54,1.36-.87,2-.94,1.84-1.25,4.15-1.24,4.33.04,1.35.11,3.45,2.33,4.98h.01c.43.29.9.48,1.37.56ZM30.16,227.91c0,.82.24,2.1.9,2.64.05.04.1.06.16.07.13.03.48.16,1.05.26h-7.25c2.44-.88,4.24-2.22,5.13-2.98ZM31.45,229.97c-.99-.89-.52-3.21-.11-4.73.29-1.1.55-2.07.26-2.69-.17-.43-.37-1.12-.48-1.86-.09-.66-.1-1.37.06-1.96.15-.54.44-.98.97-1.19.13-.05.29-.09.45-.12h.02c.76-.13,1.31-.07,1.74.1.36.14.63.37.85.64.19.73,1.01,2.6-.58,5.15-.1.16.3.89.75.67-.9.65-2.11,2.22-2.26,2.61-.11.29-.18.63-.15.96.03.36.16.71.46,1.01.19.19.45.36.79.49h0c1.03.36,1.4.89,1.53,1.21-2.67.31-3.89-.19-4.32-.29ZM36.21,227.84c-.13-.11-2.04-1.19-2-1.69l.05-.06c.24.37,1.57.79,2.08,1.37.18.21.35.39.3.87-.08-.16-.22-.33-.44-.49ZM36.52,228.98c-.23-.26-.77-.8-1.26-1.04-.41-.2-.93-.39-1.58-.55,0-.19.05-.38.11-.56.03-.07.05-.13.08-.19.18.42,2.93,1.45,2.65,2.34ZM34.48,228.4c-.24-.09-.42-.2-.54-.32-.07-.07-.12-.14-.16-.22.53.15.96.3,1.3.47.6.29.94.59,1.11.89.13.22.17.44.14.64-.24-.47-.75-1.06-1.86-1.45ZM37.09,228.11c-.04-1.08-2.3-1.67-2.56-2.38-.02-.41,1.18-1.56,1.7-1.97.54-.03,1.17.17,1.77.89.06.08.15.12.24.12-.26.98-.26,2.15.15,3.52.06.18.25.29.43.23.12-.04.21-.13.24-.25.07-.17.61-1.36,2.91-.87.16.12.33.28.51.45,1.43,1.35,2.57,2.38,4.63,2.89.28.07.55.11.83.15h-11.68c.2-.08.89-1.02.82-2.79ZM47.28,230.07c-1.2-.3-2.43-.93-3.71-2.12h0c-.17-.18-.37-.38-.61-.6-.16-.16-.33-.31-.49-.43.01-.71.32-3.71,4.51-4.88,1.46.75,2.77,1.6,3.72,2.54h0s1.1.87,1.22,1.01c.21.24.28-.16-.22-.79-.02-.03-.14-.18-.15-.23.71-.17,1.94-.59,2.67-1.57.13.34.24.67.27.99.3,2.92-.59,5.15-3.6,6.15-1.2.18-2.39.22-3.6-.07ZM48.69,257.81l5.63-.09c2.82-.05,2.72-.1,5.25,1.13l-.78-1.3c1.99-.01,7.07-.13,7.07,2.78,0,1.33-1.07,2.57-2.76,1.89-.72-.42-.94-.88-1.21-1.44-.44.81-.1,1.96,1.08,2.65,3,1.73,7.58.17,8.47-3.75.35.69.84,1.29,1.44,1.73-.25.61-.36,1.27-.33,1.92-5.39,6.31-9.46,4.66-15.93.02,1.03-.16,1.97-.79,2.39-1.44.32-.5-1.21.51-2.81.51-.97.26-3.35-1.22-3.6-1.42l-3.9-3.19ZM64.46,257.1h6.01c.51,3.29-1.48,6.29-5.08,6.01,1.6-.92,2.81-4.61-.93-6.01ZM82.04,263.85c3.27-.08,6.31-3,5.66-6.76h4.42c.07.71-.08,1.45-.4,2.1-.5,1.02-1.05,1.36-1.89,1.83l.25.45c1.05,1.94.06,4.39-2.1,4.99-1.03.29-1.69.09-2.59-.22l-.18.47c-.5,1.32-1.71,2.24-3.15,2.27-1.44-.02-2.66-.95-3.16-2.27l-.18-.47c-.91.31-1.57.5-2.59.22-2.17-.6-3.16-3.05-2.1-4.99l.25-.45c-.84-.47-1.39-.81-1.89-1.83-.32-.65-.47-1.38-.4-2.09h4.42c-.65,3.76,2.39,6.68,5.66,6.76ZM77.44,257.09h4.66s4.53,0,4.53,0c.32,1.57-.17,3.19-1.29,4.31-.98.98-2.16,1.4-3.3,1.4-1.15,0-2.33-.43-3.31-1.4-1.12-1.12-1.61-2.74-1.29-4.31ZM91.28,264.62c1.86,2.05,3.56,3.23,5.26,3.72.22,1.46-.33,2.29-.38,3.45-1.16-.11-2.22.36-3.5-.06-.21-2.03-1.45-3.7-3.48-4.64.99-.53,1.74-1.41,2.11-2.47ZM80.36,269.68c.52.22,1.08.35,1.68.35.6,0,1.16-.13,1.68-.35-.15.92.11,1.83.79,2.44.81.74,1.57.79,2.59.62-.23,1.72-1.72,2.36-3.02,2.91-.79.34-1.58.74-2.03,1.27-.45-.53-1.25-.94-2.04-1.27-1.3-.55-2.79-1.19-3.02-2.91,1.02.17,1.78.12,2.59-.62.68-.62.94-1.53.79-2.44ZM74.9,267.09c-2.03.94-3.27,2.6-3.48,4.64-1.28.42-2.35-.05-3.51.06-.06-1.16-.61-1.99-.38-3.45,1.7-.49,3.4-1.67,5.26-3.72.37,1.06,1.12,1.94,2.11,2.47ZM66.85,272.37l-.08.52-11.96-9.28c2.82,1.81,6.61,4.01,8,4.48,1.26.43,2.46.61,3.65.46-.15,1.69.57,2.69.39,3.81ZM67.05,273.12c.79-.29.96-.35,2.12-.23.68.07,1.41.15,2.24-.06.04.52.13,1.03.28,1.52.27,1.52,1.15,2.91,2.27,4.14l-6.91-5.36ZM80.31,283.4c.49.33.85.59,1.01.78l-1.01-.78ZM82.12,284.81l-.57-.44.41-.02h.16l.54.02c.01-.28.95-.86,2.23-1.71l-2.77,2.15ZM87.92,275.88c.13,2.5-1.82,4.8-3.47,5.88-.9.59-1.87,1.01-2.41,1.6-.54-.59-1.51-1.01-2.41-1.6-1.65-1.08-3.6-3.38-3.47-5.88-.06-.73-1.24,1.03-1.25,2.15-1.2-1.06-2.58-4.27-2.45-6.04.05-.68.24-1.35.61-1.97.6-1,1.67-1.87,3.4-2.43.54.07,1.1.05,1.64-.07.21.42.48.8.8,1.14.43.57.76,1.96-.03,2.68-.8.73-1.97.32-2.91.1-.36,5.34,4.02,4.27,6.08,6.89,2.06-2.61,6.44-1.54,6.08-6.89-.94.22-2.11.63-2.91-.1-.79-.72-.46-2.11-.03-2.68.32-.33.59-.72.8-1.14.54.12,1.09.14,1.64.07,1.73.56,2.81,1.43,3.4,2.43.37.62.56,1.29.61,1.97.13,1.77-1.25,4.99-2.45,6.04-.01-1.12-1.19-2.88-1.25-2.15ZM89.63,278.99c1.35-1.35,2.45-2.91,2.76-4.64.15-.49.24-1,.28-1.52.83.21,1.56.13,2.24.06,1.21-.13,1.35-.05,2.23.27l-7.51,5.83ZM97.33,273.01l-.1-.64c-.18-1.12.54-2.12.39-3.81,1.19.14,2.39-.03,3.65-.46,1.56-.53,6.18-3.26,9.03-5.15l-12.97,10.06ZM111.49,261c-.25.2-2.63,1.68-3.6,1.42-1.6,0-3.13-1-2.81-.51.42.65,1.35,1.27,2.39,1.44-6.47,4.64-10.54,6.29-15.93-.02.03-.65-.08-1.31-.33-1.92.59-.43,1.09-1.04,1.44-1.73.9,3.91,5.47,5.47,8.47,3.75,1.18-.68,1.52-1.83,1.08-2.65-.27.56-.5,1.02-1.21,1.44-1.69.67-2.76-.56-2.76-1.89,0-2.91,5.08-2.79,7.07-2.78l-.78,1.3c2.53-1.23,2.43-1.17,5.25-1.13l5.63.09-3.9,3.19ZM98.69,263.11c-3.59.28-5.59-2.72-5.07-6.02h6.01c-3.75,1.41-2.53,5.09-.93,6.02ZM116.95,257.79l.82-.66h.03l-.85.66ZM82.72,256.04h0s-.62,0-.62,0h-.62s0,0,0,0l-72.64.1c-1.59-3.52-2.45-6.76-2.58-9.83-.13-3.14.5-6.11,1.9-9.03h0c.62-1.36-.2-2.12-.97-2.59l2.16-2.74h145.49l2.16,2.74c-.76.47-1.58,1.23-.97,2.58h0c1.39,2.93,2.03,5.9,1.9,9.03-.13,3.07-.99,6.31-2.58,9.83l-72.64-.1ZM116.08,212.93c-.11-.04-.23.02-.26.13-.49,1.47-.56,1.65-.69,1.99,0,0-.35,1.16-.54,1.12,0,0-.4.09-.02-1.29.17-.6.36-1.36.64-2.05.04-.11,0-.23-.12-.27-.11-.04-.23,0-.27.12-.28.71-.49,1.48-.65,2.1-.17.66-.32,1.27-.54,1.22,0,0-.35-.09-.13-.86.12-.39.27-.82.48-1.44.2-.58.37-1.09.41-1.25.03-.11-.04-.23-.15-.25-.11-.03-.22.04-.25.15-.04.15-.21.65-.4,1.22-.22.65-1.09,3.93-1.09,3.93-1.2-.61,1.64-6.92,1.56-7.52-.03-.19-.11-.68-.13-.49-.02.24-.65,2.88-1.6,3.72-.41.38-.87,0-.87,0,.19-.16.45-.38.74-.91l.02-.04s.75-1.78.94-3.12v-.05c0-.18.04-.36.1-.54.07-.19.16-.37.28-.52.27-.31.62-.71,1.06-1.1.4-.35.88-.69,1.43-.95,1.59.7,1.99,2.44,2.09,3.28-.33.35-.65.8-.91,1.33-.24.5-.43,1.09-.52,1.76h0c-.1.95-.29,1.65-.49,2.17-.34.84-.76,1.37-.85,1.41,0,0,.38-1.24.88-2.73.04-.11-.02-.23-.13-.26ZM116.33,205.34c.27-.21.77-.44,1.68-.42.46-.05,1.94,1.69,1.71,3.33-.06.13-.31.63-.9.96v-.02c-.13-.97-.6-3-2.49-3.85ZM119.03,204.82c.54-.25,1.22-.59,2.28-1.12h.01c1.83-.92,2.95-1.3,3.74-1.56.65-.22,1.09-.36,1.54-.68h.02c.47-.38,1.17-1.17,1.78-2.05.44-.64.85-1.34,1.09-1.98,1.24,1.12,2.78,1.43,3.74,1.51-.18.28-.37.57-.57.86-.32.46-.66.94-1.03,1.45-.01.02-.02.03-.03.05,0,0-1.32,2.63-3.93,3.5h-.01c-.7.26-3.1,1.07-3.1,1.07-1.62.54-3.23,1.08-4.14,1.49-.14-1.19-.84-2.03-1.39-2.54ZM119.3,192.61c-.11-1.33-1.15-1.68-1.15-1.68-.18-.06-.61.11-.45.21.61.4.82.65.9,1.51,0,.12,0,.19,0,.27-.01.53-.03,1.37.16,2.61-.79-.02-2.52-.26-3.63-1.97l.16-.4c.55-1.45,1.27-3.34,2.49-5.41.21.3.48.56.85.71.42.21.88.28,1.34.3.09,0,.18,0,.26,0-.05.08-.61.92-1.64.97-.19,0-.35.16-.35.35,0,.06.01.11.04.16.1.22.82,1.67,3.11,1.38.02,0,.04,0,.06-.01.1-.02.19-.05.28-.07-.07.16-.13.32-.18.49-.42,1.24.14,3.61.72,5.46,0,.01,0,.02,0,.04,0,.36.1.93.22,1.59.18.98.39,2.17.35,3.13-.27.11-.57.24-.89.39-.99-2.02-1.61-3.68-2-5.04v-.02c.01-.08,0-.16-.05-.23l-.32-1.54c-.01-.06-.04-.12-.09-.17-.22-1.29-.2-2.15-.19-2.68v-.29s0-.03,0-.03ZM105.28,188.32c-1.47-.84-2.05-1.89-2.23-2.29-.19-.28-.43-1.15-.38-1.29.28.54,1.39,2.19,2.66,3.02.1.06.23.03.29-.06.06-.1.03-.23-.06-.29-1.55-1.01-3.03-2.97-2.78-3.56.23.31,1.31,1.54,1.64,1.86.38.37.86.76,1.45,1.21.09.07.22.05.29-.04.07-.09.05-.22-.04-.29-.58-.43-1-.86-1.41-1.18-1.84-1.42-1.62-2.66-1.64-2.91l.02-.16c-.02-.08.22.37.3.52l.03.05c1.85,2.99,3.46,3.33,3.72,3.37.12.02.25-.02.34-.12.12-.15.1-.37-.05-.49-.1-.08-.18-.16-.26-.25v-.02c-.34-.36-.57-.82-.65-1.27-.08-.41-.03-.79.19-1.06.03-.04.06-.07.08-.09.13-.09.09.15.08.21v.05c-.11,1.46,1.45,2.56,1.52,2.61l.05.03c1.56.78,1.72,2.84,1.73,3.08,0,.02,0,.05,0,.08.03.17.02.34-.04.51-.07.19-.18.38-.34.57-.3.34-.72.53-1.14.57-.44.04-.88-.07-1.23-.34h0c-.77-.58-1.51-.95-2.23-1.18-1.4-.46-2.02-1.54-2.02-1.54-.19-.23-.52-.99-.52-1.48.36.54,1.39,1.94,2.44,2.54.1.06.23.02.29-.08.06-.1.02-.23-.08-.29ZM110.98,189.81c.23.25.52.68.72,1.34-.02.04-.05.1-.09.17-.02.03-.04.05-.05.08-.3.48-1.05,1.28-2.67,1.26-.17-.16-.57-.56-.87-1.15.78.05,2.1-.15,2.96-1.7ZM111.85,192.16c.61,1.04,1.27,2.19,1.8,3.14.03.1.06.2.11.31.03.09.18.47.57.93.2.37.34.62.36.66v.02c.28.45.51.87.68,1.27.17.39.3.76.39,1.11.05.19.15.39.34.5.16.1.1-1.46-.1-1.9-.09-.19-.18-.39-.28-.59.74.39,1.74.71,3.1.83-.57,1.35-1.21,2.72-1.81,3.78-.54.95-1.02,1.62-1.36,1.73-.65.45-4.03.96-4.93-7.15-.09-.84-.29-1.53-.44-1.97-.14-.57-.39-1.08-.62-1.54,1.09-.16,1.77-.67,2.18-1.14ZM114.93,196.18c-.17-.3-.38-.69-.62-1.12-.07-.41.15-.75.35-.97,1.34,1.93,3.39,2.14,4.24,2.13.08.4.19.84.32,1.32l-.1.25c-2.4-.16-3.6-.97-4.18-1.6ZM136.54,164.74c.29.79.55,1.61.78,2.44,1.06,3.78,1.56,7.95,1.38,11.32-.17,3.27-.97,5.76-2.52,6.32-.04.01-.07.02-.1.03-.56-.22-1.12-.36-1.62-.49-.12-.03-.24-.06-.37-.1.44-.17.88-.53,1.17-1.23h0s.62-1.46-.4-2.9c-.04-.07-.52-.89.58-1.84l.02-.02c.07-.07.12-.15.15-.23.03-.08.03-.16,0-.24l-.02-.05c-.03-.08-.09-.15-.17-.2-.06-.04-.14-.06-.22-.06-.04,0-.08,0-.12.02l-.15.05c-.32.11-.74.24-1.18.42.21-.27.39-.52.54-.72l.1-.14c.11-.16.07-.37-.08-.48-.05-.04-.11-.06-.17-.06.08-.12.14-.23.19-.32.03-.06.05-.1.07-.16.06-.14.13-.3.23-.39h0s.02-.03.02-.03c.8-.96,1.81-.88,1.82-.88.13.01.26-.05.33-.18.09-.17.04-.38-.13-.48-.91-.51-1.66-.7-2.23-.74.11-.19.2-.36.27-.56l.02-.05c.1-.35.15-.71.15-1.06s-.05-.71-.15-1.06h0c-.32-1.03.13-1.63.13-1.63.04-.05.06-.12.07-.19,0-.19-.14-.36-.33-.37-.62-.03-1.14,0-1.59.1.11-.34.18-.84.12-1.52.04-.05.07-.12.11-.18.02-.03.03-.06.03-.1l.09-.55s0-.04,0-.06c0-.17-.05-.34-.15-.48-.09-.12-.22-.21-.38-.23l-.03-.11c-.04-.16-.36-1.77.54-2.59.14-.13.15-.35.02-.49-.09-.1-.21-.13-.33-.1,0,0-.28.06-.67.2.22-1.7-.07-3.26-.17-3.74.35-.13.91-.4,1.14-.94l.02-.04c.22-.77-.29-1.88-.29-1.89-.08-.18-.28-.26-.46-.18h-.01s-1.13.52-1.46,1.29v.04c-.19.61.14,1.25.31,1.53-1.32,1.25-1.95,2.53-2.23,3.3-.18-.17-.39-.33-.63-.45-.17-.09-.38-.02-.47.15-.03.06-.04.13-.04.19,0,0,.16,1.75-.97,2.64l-.06.05s-.4-.06-.57.05l-.43.95s0,.04,0,.06c0,.05,0,.1.01.16-.12.2-.22.41-.3.61-.08.22-.14.44-.18.65-.66-.65-1.36-.92-1.37-.92-.09-.03-.19-.03-.28.02-.17.09-.24.29-.16.47.19.37.23.72.12,1.04-.11.34-.39.67-.84,1-.92.67-.99,1.68-.98,2.09-.17.21-.41.67-.15,1.35v.03c.06.09.13.16.23.21-.05.12-.09.25-.14.37v.02c-.19.67-.34,1.19-.55,1.62-.2.42-.46.76-.85,1.11h-.01c-.71.61-.99,1.05-1.05,1.39-.07.41.13.66.34.84.03.03.31.17.23.38,0,.02-.01.05-.01.08-.06.02-.08.09-.13.12-.15.1-.16.2-.16.31,0,.1.05.22.17.35-.21.18-.11.53-.06.63.04.09.19.23.24.25,0,0,0,.02-.01.03-.13.42-.13.77-.03,1.05.09.28.27.49.49.64.11.07.22.13.34.16.01.02.03.03.05.05l.12.09c.38.31,1.2.95,2.73,1.04.05.33.14,1.44-.71,1.9-.76.19-1.47.33-1.82.4-1.81.16-5.88-.2-5.61-6.86.17-4.17,2.5-9.01,5.88-13.63,3.7-5.04,8.65-9.81,13.44-13.15-.36,1.94-.88,6.94,1.49,13.48ZM153.56,207.42c.16-.04.46,0,.77.13.24.1.67.36.78.6h0c.03.06.05.12.05.18.02.14,0,.29-.06.41-.05.12-.14.21-.23.26,0,0-.02,0-.02.01-.16-.27-.38-.51-.61-.68-.3-.22-.63-.33-.9-.26-.15.04-.36.36-.2.34.7-.08,1.34,1.05,1.38,1.08,0,0,.37.78-.37.87-.26-.79-1.26-1.28-1.34-1.15-.08.13.13.3.26.38,0,0,.47.41.6,1.11.16.63-.41.89-.81,1.04-.1-2.18-2.45-2.96-3.14-3.13.07-.1.13-.19.21-.24.16-.11.2-.32.1-.48-.01-.02-.03-.04-.04-.05-.2-.23-3.01-3.3-6.09-1.11-.13-.58-.27-1.42-.25-2.26.01-.69.13-1.38.42-1.91.18-.33.44-.51.7-.61.27-.1.57-.13.81-.13.25.04.49.13.7.25.23.14.44.32.6.52h0c1.48,1.95,3.99,2.31,4.26,2.35h.03s.91.08,1.19.56c.32.7,1.05.88,1.23.91.03,0,.06.01.09.01.47,0,.97.09,1.31.29.11.07.2.15.26.24.05.08.08.17.08.29,0,.1-.02.21-.07.33-.2-.23-.51-.26-.77-.38-.42-.18-1.31-.1-1.27.05.04.15.19.24.34.2ZM149.25,208.07c-.27.36-.45.88-.56,1.27-1.69-.98-3.63-.32-4.48.05-.17-.79-.41-1.24-.6-1.5,2.48-2.49,4.91-.53,5.65.18ZM144.38,211.27c0-.29-.03-.56-.05-.82-.01-.11-.02-.23-.03-.34.62-.3,2.65-1.15,4.25-.03.06.18.12.37.18.57.08.26.17.52.25.79-.39-.03-.83-.02-1.31.05h-.02c-1.54.23-2.6.95-3.3,1.65.08-.62.09-1.24.02-1.87ZM147.76,212.18h0c2.1-.3,3.07.61,3.45,1.16-.5.2-1.17.75-1.21,2.32-.97-.42-3.15-.95-6.13.87-.1-.23-.21-.45-.31-.67.01-.04.03-.09.04-.13.12-.27.23-.54.32-.82.21-.45,1.24-2.34,3.82-2.72ZM151.27,221.94c0-.97-.07-1.97-.18-2.96-.03-.29-.06-.59-.1-.87,1.37-.93,2.64-.78,2.64-.78h.02c2.19.16,3.52-.43,4.26-1-.52,2.61-1.3,3.09-1.95,3.5-.66.41-1.22.76-1.44,2.33v.03c-.05.43-.08.87-.1,1.3-.17,2.79-.34,5.6-6.89,7.21-.33.08-.65.14-.97.19h-4.33c-4.46-.75-7.47-3.56-7.91-3.99-.1-.62-.27-1.25-.42-1.84-.25-.95-.48-1.79-.32-2.19,1.01,1.12,2.01,2.1,2.95,2.93,1.35,1.2,2.56,2.1,3.46,2.68.28.19,4.44,2.75,7.62,1.98h0c1.28-.35,2.27-.8,2.92-2.06.61-1.2.88-3.13.74-6.45ZM124.36,212.83v-.04c-.12-.65-.08-1.23.05-1.73.16-.6.45-1.09.76-1.46l.13-.13c.36-.37.74-.75,1.24-.69.81.12,1.23.61,1.39.86-1.74,2.07-1.26,6.25-1.24,6.45.13,1.87-1.76,2.43-2.26,2.54l-2.2-1.27c.89-.57,2.46-1.95,2.12-4.53ZM129.02,223.16c-.1-.03-.2-.06-.31-.08-.03,0-.06-.02-.09-.02-.65-.11-1.41.02-2.16.7-.3-1.02-.83-3.29-.23-4.92.17-.14.85-.58,2.38-.6-.2.9-.5,3.03.4,4.92ZM127.01,217.75c.27-.44.43-1,.38-1.71v-.02s-.15-1.18-.04-2.55c.34.83.67,1.53.97,2.12.36.7.67,1.26.93,1.69-.11.08-.2.17-.29.27-.82-.02-1.47.07-1.96.2ZM128.49,215.04c.17.16,1.39,1.64,1.59,1.79-.04.01-.09.03-.13.05-.03.01-.21.1-.24.11-.1-.16-1.1-1.75-1.21-1.95ZM127.76,212.61c1.07-.11,2.03-.33,2.88-.62.97-.34,1.79-.78,2.46-1.26.19.14.37.26.55.38,1.54.98,2.74,1.13,3.19,1.18.48.09,2.02-.03,3.22-.63.28-.14.54-.3.77-.5.06.12.12.25.18.38h0c-1.61.59-2.3,1.63-3.01,2.68-.75,1.11-1.51,2.25-3.57,2.8h0c-.23.05-.46.09-.67.12-.18.03-.36.05-.55.05-.15-.11-.32-.21-.52-.29-.19-.07-.39-.13-.62-.16h0c-.43-.07-.81-.09-1.16-.07-1.45-.85-2.47-2.23-3.15-4.05ZM130.4,211.33c-.82.29-1.75.5-2.81.59.19-.73.48-1.41.94-1.92.37-.18.79-.41,1.21-.66.38-.22.76-.47,1.12-.73.56.67,1.12,1.21,1.64,1.66-.59.4-1.29.77-2.12,1.06ZM128.48,209.21c-.25-.36-.83-.97-1.85-1.12h0c-.84-.11-1.34.4-1.82.89l-.1.1c.36-.71.69-1.63.89-2.83.83-.28,1.63-.55,2.3-.8.23-.08.46-.17.67-.27.61,1.12,1.22,2.06,1.83,2.85-.64.52-1.33.88-1.92,1.18ZM125.42,219.11c-.32,1.35-.1,2.91.15,4.01-1.06-1.55-2.76-2.43-3.83-2.85,1.29-.46,2.55-.85,3.68-1.16ZM125.69,227.35c-.47-.46-1.34-.93-2.91-.68-.08-1.05-.65-3.74-4.22-5.05l2.17-.96c.83.24,5.86,1.9,4.96,6.69ZM125.51,228.28c.03.11.12.21.24.25.19.05.38-.05.43-.23.41-1.37.41-2.54.15-3.52.09,0,.18-.05.24-.12.6-.72,1.23-.92,1.77-.89.52.41,1.72,1.56,1.7,1.97-.26.71-2.52,1.3-2.56,2.38-.07,1.76.62,2.71.82,2.79h-11.68c.27-.04.55-.08.83-.15,2.06-.51,3.21-1.54,4.63-2.89.18-.17.35-.32.51-.45,2.3-.49,2.85.7,2.91.87ZM128.37,227.84c-.22.16-.36.32-.44.49-.05-.48.12-.66.31-.87.51-.58,1.84-1,2.08-1.37l.05.06c.04.51-1.87,1.58-2,1.69ZM130.7,226.64c.03.06.05.12.08.19.06.17.11.37.11.56-.65.17-1.17.35-1.58.55-.49.24-1.03.78-1.26,1.04-.28-.89,2.47-1.92,2.65-2.34ZM128.24,229.84c-.02-.2.01-.42.14-.64.18-.29.52-.6,1.11-.89.35-.17.78-.32,1.31-.47-.04.08-.09.15-.16.22-.12.12-.3.24-.54.32-1.11.39-1.62.98-1.86,1.45ZM130.33,229.05h0c.34-.13.6-.29.79-.49.3-.3.43-.65.46-1.01.02-.34-.04-.67-.15-.96-.14-.39-1.36-1.96-2.26-2.61.45.22.85-.51.74-.67-1.59-2.54-.76-4.41-.58-5.15.22-.27.5-.49.85-.64.43-.17.99-.23,1.74-.11h.02c.17.03.32.07.45.12.52.21.82.65.97,1.19.16.59.15,1.29.06,1.96-.1.74-.3,1.43-.47,1.86-.29.62-.03,1.59.26,2.69.41,1.52.89,3.85-.11,4.73-.43.11-1.65.6-4.32.29.13-.33.49-.85,1.53-1.21ZM133.35,230.63c.06-.01.11-.03.16-.07.67-.54.89-1.82.9-2.64.89.76,2.7,2.1,5.13,2.98h-7.25c.57-.11.93-.23,1.05-.26ZM144.49,219.63c1.11,1.64,1.11,3.64,1.11,3.84-.04,1.21-.1,3.1-2.03,4.43-.49.33-1.04.49-1.59.49s-1.11-.16-1.6-.49h0c-.5-.32-1.09-.75-1.77-1.27.39.07.79.08,1.18.03,1.01-.13,1.99-.65,2.85-1.59.27-.29.53-.63.78-1.01.95-1.39,1.15-3.04,1.08-4.43ZM144.17,217.17c3.28-2.04,5.41-1,5.89-.7.18.87.51,5.49.51,5.49.14,3.19-.1,5.02-.66,6.12-.52,1.03-1.37,1.41-2.48,1.7-1.75.42-3.65-.19-4.86-.74.48-.08.94-.27,1.37-.55h.01c2.22-1.54,2.29-3.64,2.33-4.99,0-.17-.3-2.49-1.24-4.33-.33-.64-.58-1.34-.87-2ZM142.83,223.67h0c-.23.35-.46.66-.71.92-.74.81-1.57,1.26-2.42,1.37-.85.11-1.73-.13-2.6-.69-.28-.18-.55-.4-.82-.64h-.01c-.78-.75-1.6-1.58-2.42-2.51.11-.39.22-.86.29-1.34.1-.74.11-1.54-.07-2.23-.02-.07-.04-.13-.06-.19,1.41,1.3,4.95,4.2,6.3,1.83.1-.17-.05-.65-.13-.48-1.12,2.33-4.64-.86-5.81-1.98l.2-.04h.05c2.31-.62,3.15-1.87,3.97-3.1.64-.95,1.27-1.89,2.68-2.41.02.07.35,1.02.51,1.4.18.43.38.85.58,1.25.25.55.75,1.38,1.05,2.46.18.83.96,4.16-.57,6.38ZM141.01,209.63c-.05.24-.16.46-.31.65-2.98,2.39-6.27,1.49-9.61-2.5-.63-.79-1.27-1.75-1.9-2.92.61-.37,1.13-.81,1.55-1.24.27.62,1.85,3.3,2.17,3.7.46.58.92,1.05,1.46,1.46,2.91,1.88,4.89.28,5.33-.31.24-.44.48-1,.46-1.43.19.27.37.57.54.9.34.68.42,1.23.32,1.67ZM133.83,203.42c-.17.52-.38.98-.61,1.41-.18.33-.37.63-.58.92-.74-1.17-1.22-2.29-1.39-2.71.58-.7.9-1.29.96-1.41.36-.5.7-.97,1.02-1.44.07-.1.14-.21.21-.31-.15.98-.19,2.32.39,3.53ZM139.42,207.4c-.86-1.16-1.72-2.03-2.48-2.67,1.72.59,2.3,1.59,2.3,1.59.21.4.25.76.18,1.08ZM139.08,208.12c-.33.43-.77.68-.88.73-1.11.43-2.13.21-3.02-.35.84-1.24,1.18-2.5,1.31-3.25.79.67,1.69,1.6,2.59,2.86ZM134.61,208.1c-.43-.35-.82-.77-1.17-1.21-.13-.16-.24-.32-.36-.48.28-.38.54-.81.78-1.27.2-.39.38-.81.54-1.25.4.23,1.03.59,1.4.82l.06.05c-.06.51-.29,1.93-1.25,3.34ZM129.51,196.47c.02-.28.14-1.02.65-2.06.7.62,2.44,1.86,5.03,1.82-.2.6-.62,1.61-1.2,2.04,0,0-2.65.21-4.49-1.8ZM128.46,195.9c-.06.08-.13.14-.19.21-.87.9-2.14,1.83-3.17,2.52-.04.01-.07.04-.1.06-.6.4-1.11.71-1.41.89-.47-1.2-2.13-5.67-1.53-7.4h0c.12-.42.32-.78.57-1.1.23-.29.5-.55.79-.75l.11.09c-.18.14-.35.29-.5.46-.29.32-.52.7-.67,1.1v.03c-.2.63-.06,1.65.2,2.67,0,.02,0,.04.01.07h0c.39,1.56,1,3.08,1.06,3.23,0,.02.01.03.02.05.08.13.25.18.38.1.01,0,4.04-2.35,4.63-4.01h0c.21-.68.27-1.4.14-2.04-.08-.39-.24-.76-.47-1.08.06-.03.12-.05.19-.08.44.47.67.98.82,1.6.18.69.15,1.43-.1,2.15,0,0-.41.82-.79,1.24ZM129.15,195.93c0,1.62-1.61,3.68-1.76,3.88-.05-.2-.34-1.52-.41-1.86.5-.39.99-.8,1.42-1.21,0,0,.33-.27.75-.82ZM126.92,200.18c-.27.31-.53.56-.73.72-.15.1-.3.19-.48.26-.07-.67-.14-1.38-.21-2.14.32-.21.65-.45.99-.7.07.31.13.6.19.84.08.36.16.7.24,1.02ZM125.17,201.37c-.1.04-.21.07-.33.11-.39.13-.85.29-1.44.52,0-.59-.07-1.23-.17-1.85.08.12.24.15.37.08,0,0,.58-.33,1.37-.85.07.72.13,1.39.2,1.99ZM121.28,190.92c-1.13.14-1.75-.23-2.07-.55.16-.03,1.16-.65,1.35-.88.17-.21.64-.81.64-.81,0,0,.4-.05.57-.14.27.45.75.96,1.23,1.4-.26.2-.51.43-.73.69-.04,0-.64.19-1,.28ZM123.77,192.88c.07.36.17.72.28,1.06l-1,.38c-.19-.84-.29-1.64-.15-2.14.13-.34.32-.65.56-.92.13-.15.29-.29.45-.41-.28.59-.28,1.31-.14,2.04ZM127.53,192.42l-.02.04c-.27.8-1.89,1.91-2.54,2.34-.23-.57-.51-1.3-.65-2.02-.14-.73-.13-1.44.23-1.92.47.18.94.29,1.41.33.47.04.95.02,1.42-.08.11.18.2.39.23.61h0c.04.25.02.49-.08.69ZM128.03,192.66c.12-.25.17-.52.15-.79.04.1.07.21.09.32.11.54.06,1.16-.12,1.74-.17.47-.69,1.03-1.31,1.56l-.41-1.06c.68-.54,1.39-1.2,1.59-1.78ZM124.58,195.32c.06.14.22.21.37.15.02,0,.04-.02.05-.03.08-.05.52-.32,1.04-.7l.42,1.08c-.91.72-1.92,1.36-2.4,1.65-.2-.51-.6-1.59-.89-2.68l1.05-.39c.13.35.26.66.37.92ZM124.23,190.07c-.6-.46-1.6-1.37-1.91-2-.33-.66-.57-1.48-.75-2.48.48-.06.78-.14.79-.14.05-.01.1-.04.14-.07.13-.03.27-.06.4-.09-.01.66.09,1.86.84,2.88h.01c.48.6,1.27.99,2.19,1.12.84.12,1.8.02,2.71-.36.47-.19.9-.46,1.27-.8.42-.37.78-.8,1.09-1.26.01-.02.02-.04.03-.05l.15-.3c.32-.62.7-1.39.96-2.18.27.06.67.12,1.06.13-.15.59-.49,1.69-1.12,2.74-.22.44-.57.81-.63.89-.45.49-.96.88-1.47,1.26-3.02,2.2-5.68.79-5.77.72ZM122.22,180.96c-.38.12-.65.06-.85.05-.16-.01-.33-.06-.47-.16-.13-.09-.24-.21-.29-.38-.06-.19-.06-.44.04-.75,0-.03.01-.05.01-.08.33,0,.67-.06.98-.18.37-.14.69-.36.92-.61,0,0,.02-.02.02-.03.17-.02.27-.06.51-.15.2-.08.28-.39.19-.36-.35.2-.9.36-1.5-.06-.22-.16-.48-.35-.65-.37-.16-.05-.51.08-.51.08,0,0,.06-.36.03-.48.05,0,.1,0,.15,0,.16-.01.34-.2.45-.11.34.26.76.1.76.1.34-.11.31-.45.29-.56-.02-.22-.17-.44-.46-.54-.09-.03-.19.02-.22.11.32.1.44.46.32.6h0s-.31.26-.58-.04c-.05-.05-.14-.04-.2,0-.08.06-.23.14-.39.15-.13,0-.37.02-.53-.09h0c-.11-.1-.21-.22-.18-.4.04-.24.28-.58.89-1.09l.02-.02c.44-.39.73-.78.96-1.26.22-.46.39-1,.58-1.71.05-.14.09-.28.15-.4.2.03.43.04.7.05,1.19.07,3.22.18,5.35,1.16.41.66.68,1.34.81,1.82.07.3.09.69.09.73.08.71-.09,1.38-.09,1.41-.17,1.35-.9,2.28-.95,2.34,0,0-1.18,1.31-1.85,1.71-.68.41-1.4.66-2.07.71-.11,0-.53.02-.59,0-1.1-.03-1.81-.38-2.25-.67.13-.03.25-.09.35-.15.11-.08.19-.38.06-.34ZM121.16,178.71c.24.02.73.07.99.06-.13.09-.5.29-.66.35-.3.12-.64.18-.97.15-.09-.02-.29-.02-.35-.23-.11-.41.62-.37.98-.34ZM120.06,178.24c.05-.11.08-.2.13-.2,0,0,.31.23.34.2.05-.04.33-.18.41-.16.24.04.47.25.67.39l.2.12c-.14,0-.48-.06-.61-.07-.35-.03-.73-.04-.98.04-.12-.1-.19-.26-.16-.33ZM126.01,170.43c-1.06-.18-2.15-.27-3.22-.21.02-.34.16-.88.69-1.27.56-.41.93-.86,1.09-1.34.08-.23.11-.47.09-.71.58.42,1.34,1.21,1.39,2.52h0c-.09.28-.12.61-.04,1.02ZM132.37,173.22c-.11.11-.3.19-.65.21h-.04c-.28.05-.54.1-.77.16-.1.03-.19.05-.28.09-2.82-1.89-5.7-2.05-7.24-2.14-.29-.02-.75,0-.81,0-.11-.32-.03-.52.03-.62,3.66-.27,7.69,1.33,9.75,2.29ZM132.26,166.07c.05.19.08.37.11.54l-5.41-1.18c.1-.12.2-.25.32-.37l4.99,1.01ZM127.88,164.47c.62-.69.82-1.59.87-2.21.09.09.28.35.4.54.4.71.47,1.57.48,2.02l-1.75-.36ZM131.95,163.31c.13-.07.31-.15.31-.15-.33.84-.24,1.77-.17,2.16l-1.69-.34c.28-.82.94-1.34,1.55-1.67ZM131.78,157.11c.14-.3.5-.56.77-.72.1.3.21.74.13,1.04-.14.29-.48.46-.71.54-.12-.21-.27-.56-.19-.86ZM131.6,162.71c-.48.26-.98.62-1.37,1.13-.09-.46-.24-.97-.51-1.44.12-.46.57-1.77,1.88-3.14.12.75.25,2.09,0,3.45ZM132.46,167.35c.07,1.14-.04,1.35-.42,1.55-.43.2-.74.46-.98.71-.04-.1-.09-.19-.14-.29-.29-.51-.51-.86-.68-1.13-.27-.43-.38-.59-.38-.91,0-.19-.16-.35-.35-.35-.09,0-.17.03-.24.09-.18.13-1.21.9-2.18,1.31-.02,0-.23.08-.47.26-.07-.28-.16-.53-.27-.75,0-.01,0-.02-.01-.03-.16-.43-.13-.93.06-1.44.04-.1.09-.2.14-.31.02,0,.05,0,.08,0l5.83,1.28ZM134.06,170.87c.08.29.12.58.12.87s-.04.58-.12.87h0c-.05.15-.14.31-.24.49l-.03.05c-.18-.1-.43-.23-.75-.38-.06-.22-.15-.39-.15-.39-.08-.13-.25-.18-.38-.1-.07.04-.12.11-.13.18-.49-.22-1.07-.47-1.71-.72.23-.24.5-.61.56-1.1.18-.47.8-1.42,2.81-1.46-.12.39-.2.97.02,1.69ZM134.27,180.51l.02.02c.8,1.13.33,2.24.33,2.24-.49,1.18-1.74,1.21-2.81.75,1.16-.16,1.75-.89,2.04-1.42.06-.1.12-.21.16-.34.03-.04.05-.08.07-.13.4-1.33-1.03-1.46-1.04-1.46-.19-.02-.36.12-.38.31-.02.19.12.36.31.38,0,0,.46.04.46.41-.01.02-.02.05-.03.07h0s-.02.07-.06.17c-.3.72-1,.34-1.01.34-.02-.01-.05-.02-.08-.03-.02,0-.04-.02-.07-.03h-.01c-.11-.08-.23-.2-.3-.38-.08-.19-.11-.44-.03-.76.06-.23.17-.49.36-.78h0c.39-.61,1.33-1.05,2.14-1.36-.62,1.02-.13,1.88-.06,1.99ZM130.05,177.62c.02-.1.04-.2.05-.3.05-.25.13-.76.07-1.37.05-.17.26-.73.76-.43.05.03.09.07.13.11.24.24.35.6.33,1-.02.42-.19.89-.5,1.32-.11.15-.23.3-.38.45h0c-.12.11-1.12,1.06-1.12,1.06.24-.43.53-1.07.65-1.83ZM129.73,174.38c-.07-.19-.16-.39-.26-.6.17.09.33.19.5.3-.1.09-.18.19-.25.3ZM130.15,179.51l.06-.06c.08.05.16.09.25.12.17.06.35.1.53.1,0,0,.39.02.55-.05-.19.31-.31.6-.37.86v.04c-.24.2-.6.39-1.06.33-.01-.38.04-1.35.04-1.35ZM131.1,180.99c0,.27.05.5.14.7.04.09.09.18.14.26-.11.22-.35.5-.92.58-.07-.12-.13-.26-.18-.42-.08-.25-.13-.54-.16-.89.4.04.72-.07.98-.22ZM131.62,182.23c.06.06.13.11.19.15h.02c.08.06.16.1.23.12.05.03.16.08.31.12-.38.19-.89.3-1.57.2.43-.12.68-.36.82-.59ZM133.2,176.57c-.13.1-.29.17-.47.19-.08-.02-.17-.04-.25-.07-.18-.06-.38.04-.44.22-.06.18.04.38.22.44.07.02.66.17,1.01.14-.5.63-1.15,1.69-2.52,1.44l.15-.14.02-.02c.16-.16.31-.34.44-.52.36-.52.57-1.09.6-1.61.03-.55-.13-1.06-.49-1.42-.06-.06-.13-.12-.21-.17l-.02-.02c-.55-.33-.92-.21-1.17.02,0-.05.02-.1.04-.16.07-.22.24-.43.48-.58l.02-.02c.45-.29,1.75-.1,2.11-.91.22.51-.12,1.21-.5,1.46-.13.08-.16.26-.08.39.08.13.26.16.39.08.38-.26.57-.61.65-.99.2-.11.94-.44,2.2-.02-.4.16-.83.43-1.23.89-.18.18-.29.41-.37.61l-.06.13c-.09.18-.26.44-.51.62ZM130.52,170.59c-.02.08-.04.14-.04.18-.13.4-.45.64-.55.7-.97-.34-2.04-.66-3.16-.9-.37-1.26.58-1.58.58-1.58h.02c.71-.3,1.45-.78,1.91-1.1.08.19.2.39.39.68.16.25.38.59.66,1.09.2.36.24.67.2.93ZM124.57,182.6h.11s0,0,0,0c.74-.06,1.54-.33,2.29-.78.68-.41,1.32-.96,1.84-1.62.21.08.39.06.59-.06-.04.94.03,1.64.2,2.18.1.31.22.57.39.79,0,.04.01.07.02.11l.03.05c.07.12.3.45.96.71.14.07.3.13.47.18-.24.72-.61,1.45-.91,2.04l-.15.29c-.27.41-.59.79-.96,1.11-.32.28-.68.52-1.08.67h0c-.79.34-1.62.42-2.35.32-.74-.11-1.37-.41-1.74-.86-.74-1.01-.72-2.25-.68-2.69,1.04-.65,1.02-1.92.97-2.44ZM129.85,190.82c-.14-.14-.22-.28-.28-.43.31-.17.59-.33.79-.46.59-.38,1.13-.84,1.62-1.37h0s.06-.08.09-.12c.25.26.38.43.73.99h0c.04.06.07.14.12.23.18.35.44.87,1.07,1.34h.02c.16.12.36.2.56.25h0c-.42.42-1.29.96-2.79.69-.42-.08-.72-.21-1.01-.38-.29-.18-.58-.42-.93-.72ZM130.32,192.09c0,.1-.09.53-.12.67-.05.21-.1.46-.16.7,0-.37-.04-.73-.13-1.09-.08-.3-.17-.57-.29-.83.28.24.7.55.7.55ZM135.08,195.53c-2.31,0-3.84-1.1-4.45-1.64.11-.36.34-1.44.34-1.47.2.08.43.14.68.2h.01c2.61.47,3.69-1.18,3.84-1.43.04-.06.06-.12.06-.2,0-.19-.16-.35-.35-.35-.13,0-.3-.02-.46-.07-.13-.04-.26-.09-.35-.15-.48-.37-.7-.79-.85-1.08-.06-.11-.11-.21-.16-.29-.13-.22-.24-.38-.33-.51.05.01.1.03.16.04.47.09.99.19,1.52.21.55.03,1.1-.03,1.61-.23.24-.08.45-.21.63-.38,0,.04,0,.09,0,.13.01.29-.01.6-.09.94,0,.02,0,.04,0,.05l-.03.2c-.26,1.63-.55,3.52-1.78,6.03ZM136.12,187.9h-.02c-.41.17-.86.21-1.33.19-.47-.02-.97-.11-1.42-.2-.18-.04-.34-.1-.47-.2-.07-.05-.12-.1-.18-.16.57-.96.92-1.96,1.1-2.61.12.03.3.08.48.13.55.14,1.21.31,1.79.57h.03c.17.07.36.12.55.16.16.03.33.06.48.06.1,0,.19,0,.29,0-.16.7-.53,1.82-1.32,2.08ZM119.93,185.82c.35-.06.68-.09.95-.09.15.84.35,1.56.6,2.18-.08.04-.16.06-.23.06h-.04c-.4.05-.83.09-1.23.08-.38,0-1.25-.06-1.81-.98-.11-.23-.24-.72-.27-.85,0,0,.16.06.22.06.15,0,.76-.16.88-.22.3-.11.61-.19.92-.24ZM122.05,208.44s-.02-.63.52-1.16c.68-.24,1.44-.49,2.21-.75l.07-.02c-.56,2.75-1.74,3.72-2.18,3.99-.66-.6-.63-1.79-.61-2.06ZM122.91,211.22s.03-.05.04-.07c.21-.13.59-.4,1-.9-.09.2-.16.42-.23.64-.15.59-.2,1.27-.07,2.02h0c.22,1.62-.44,2.68-1.1,3.32-.28-.14-1.35-.74-2.43-2.14.47-.39.89-.76,1.26-1.12.65-.64,1.14-1.23,1.52-1.74ZM122.11,216.61c-.4.29-.71.42-.71.42-.18.07-.26.28-.19.46.03.08.09.14.16.17l2.2,1.27c-.33.38-2.61.9-4.26-.03-.17-.09-.59-.44-.87-.59-.17-.09-.13.36.01.49.71.67,1.57.97,2.35,1.08-.87.33-1.74.68-2.58,1.07-.66,0-3.07-.19-4.23-2.3,1.47-1.26,3.22-2.51,4.98-3.68h0c.25-.19.5-.37.73-.55.96,1.24,1.93,1.9,2.41,2.18ZM117.06,221.53c-1.37.72-2.61,1.53-3.55,2.44-.52-.09-2.16-.45-2.78-1.7.5-.87,1.28-1.78,2.24-2.69.16-.15.32-.3.49-.45.94,1.59,2.49,2.18,3.61,2.4ZM113.03,224.57s-.13.2-.16.23c-.5.63-.43,1.03-.23.79.13-.14,1.18-.97,1.22-1.01h0c.95-.95,2.26-1.8,3.72-2.54,4.19,1.17,4.49,4.18,4.51,4.88-.16.13-.33.28-.49.43-.23.22-.43.42-.61.59h0c-1.28,1.19-2.51,1.83-3.71,2.12-1.21.3-2.4.25-3.6.07-3.01-1-3.9-3.23-3.6-6.15.03-.32.14-.65.28-.99.73.98,1.95,1.4,2.67,1.57ZM158.92,257.03l-2.81-.02.07-.14c1.74-3.77,2.67-7.23,2.81-10.53.14-3.31-.53-6.44-2-9.51-.35-.78.51-1.24,1.01-1.51l.59-.32-3.23-4.11h-5.98c5.4-1.79,5.58-4.59,5.74-7.37.02-.43.05-.85.1-1.27h0c.17-1.26.61-1.53,1.11-1.84.87-.54,1.91-1.19,2.47-5.13.03-.19-.11-.37-.3-.39-.15-.02-.29.06-.36.19-.07.13-1.04,1.8-4.43,1.55-.1-.01-1.4-.13-2.82.71-.06-.42-.12-.84-.18-1.24,0,0,0-.02,0-.03-.09-2.07.89-2.14,1.01-2.15.05,0,.1,0,.15-.02.18-.07.27-.27.19-.45,0,0-.54-1.43-2.33-1.89-.1-.39-.23-.77-.35-1.13-.05-.16-.1-.32-.15-.47.01-.06.08-.38.18-.71.38.09,2.93.75,2.71,2.92-.02.19.12.36.31.38.04,0,.07,0,.11,0,0,0,1.83-.39,1.8-1.5.37-.22,1.03-.71.91-1.46.2-.12.36-.32.47-.54.12-.25.16-.53.12-.82,0-.06-.03-.13-.04-.19.16-.3.22-.58.22-.82s-.07-.48-.2-.67c-.12-.18-.29-.33-.49-.45-.45-.26-1.07-.38-1.64-.38-.11-.02-.54-.12-.71-.52l-.02-.04c-.46-.8-1.74-.91-1.74-.91h-.01c-.22-.03-2.47-.35-3.78-2.07l-.02-.03c-.21-.26-.48-.5-.79-.68-.3-.17-.63-.3-.98-.35h-.05c-.31,0-.69.02-1.08.17-.4.15-.79.43-1.07.93-.36.64-.5,1.44-.51,2.24-.02,1.08.19,2.16.35,2.76-.14.14-.29.28-.44.44-.13.14-.12.36.03.49.02.02.49.39.71,1.79,0,.18.02.38.04.58.02.24.05.48.05.77,0,.02,0,.04,0,.06.08.7.04,1.41-.08,2.09-.08.41-.18.82-.32,1.21-.03.06-.04.09-.04.09v.02s-.05.12-.08.2l-.2-.42h0c-.19-.39-.38-.81-.56-1.23-.15-.36-.29-.73-.42-1.1h0c-.05-.2-.12-.38-.18-.56h0s-.01-.05-.02-.07c-.04-.11-.09-.23-.14-.34-.09-.21-.2-.43-.31-.65.17-.24.3-.52.37-.82.13-.59.04-1.3-.38-2.14-1.74-3.49-5.14-3.9-5.79-3.95-.5-.31-.88-.49-1.06-.57-.83-1.72-.22-3.8-.05-4.28,1-.74,1.55-2.66,1.6-2.87.01-.04.02-.09.02-.14,0-.12-.08-.23-.18-.28,1.16-2.46,1.45-4.32,1.7-5.94l.03-.2c.1-.4.12-.77.11-1.12-.01-.33-.06-.62-.1-.9.47-.86.61-1.88.64-2.04.02-.11-.01-.23-.1-.31-.14-.14-.36-.14-.49,0-.08.08-.29.08-.49.08-.02,0-.04,0-.07,0,1.42-1.02,2.16-3.49,2.32-6.59.18-3.44-.33-7.69-1.41-11.54-.24-.86-.5-1.69-.8-2.49-2.95-8.14-1.33-13.75-1.28-13.93.03-.1.02-.2-.04-.29-.11-.16-.32-.2-.48-.1-5.07,3.4-10.41,8.45-14.35,13.82-3.46,4.72-5.84,9.7-6.02,14.02-.2,5,1.84,6.79,3.82,7.37,0,0-.51.25-.85.13h0c-.1-.03-.21-.06-.26-.11-.14-.14-.36-.14-.49,0-.08.08-.11.19-.1.29.01.14.06.7.27,1.3-1.38,2.28-2.17,4.34-2.77,5.91l-.15.4c-.12.09-.48.39-.71.83-.48-.85-1.01-1.77-1.5-2.6.06-.12.1-.21.11-.24.03-.07.03-.14.01-.21-.4-1.5-1.33-2.12-1.33-2.12-.02-.01-.04-.03-.06-.04-.05-.02-.11-.03-.16-.03-.03-.39-.27-2.69-2.09-3.62-.15-.11-1.27-.95-1.21-1.96.04-.23-.26-1.68-1.37-.7,0,0-.55.63-.35,1.64.05.25.13.5.24.74-.55-.43-1.26-1.18-2.06-2.47,0,0-1.02-1.47-1.37-.08,0,0-.12.48.09.92-.36.53-.89,3.06-.06,4.48.43.74,1.23,1.18,2.22,1.73.64.36,1.36.76,2.09,1.3.05.04.1.07.15.11-.01.06-.01.12,0,.18.37,1.2,1.25,1.97,1.39,2.09.06.05.14.09.22.09.06,0,.11,0,.17,0l.04.08c.24.47.51,1,.66,1.58l.02.05c.14.4.26,1.07.42,1.87.55,2.88,1.4,7.35,4.28,7.88.37.1,1.37,0,1.72-.28.14-.11,1.06-1.03,1.58-1.95.64-1.12,1.31-2.58,1.9-4,.4,1.23.98,2.66,1.79,4.33-.1.05-.21.1-.32.16h0c-1.28.65-2,1-2.59,1.27-.04-.02-.07-.04-.09-.05-.05-.03-.11-.05-.18-.06-2.16-.1-2.72,1.11-2.72,1.12l-.02.05s-.02.07-.01.11c-.48.26-.89.57-1.26.89-.48.42-.86.84-1.14,1.17v.02c-.18.22-.31.46-.4.72-.09.24-.14.5-.14.75-.17,1.17-.81,2.74-.89,2.9-.24.42-.45.59-.59.71-.15.12-.26.21-.32.39-.02.05-.03.1-.03.15,0,.12.05.23.13.33.11.13.29.24.51.32.2.07.43.12.67.12.05,0,.11,0,.16,0-.37,1.33-.63,2.61-.46,3.3.14.54.46.81,1.06.66.12-.03.23-.12.26-.26.04-.14.07-.3.11-.47.05-.23.11-.49.17-.74.08.04.18.07.32.08.05,0,.09.01.13.01.18,0,.32-.06.45-.16.15.12.33.17.51.17h0c.27,0,.46-.12.6-.27.14.07.31.11.5,0h.01c.17-.1.69-.55,1.1-1.56.23-.57.43-1.34.54-2.34.08-.58.25-1.09.46-1.54.16-.32.34-.6.52-.85.07.03.16.04.24.01,1.32-.41,1.76-1.51,1.78-1.58h0s.04-.26.05-.35c.29-.15.73-.33,1.27-.54-.24.22-.34.68-.34.72,0,0-.18,1.77.83,2.7-.34.44-.76.93-1.29,1.45-.62.61-1.38,1.26-2.33,1.93-1.82,1.21-5.32,3.93-5.36,4-.25.23-.5.45-.74.68-1.01.96-2.11,2.41-2.51,3.12-.31.59-.5,1.17-.55,1.74h0c-.15,1.78.08,3.43.82,4.68.67,1.14,1.75,1.94,3.33,2.22h.02c.18.03.35.04.52.06h-5.93v-34.74c-1.68-.7-2.48-2.12-3.21-3.45-.91-1.64-1.62-3.02-3.74-3.26v-.14h0v-24.41c-.07-.04-.14-.08-.21-.11,1.25-4.97,2.79-10.04,4.62-15.09,1.76-4.87,3.8-9.74,6.11-14.51,2.29-4.73,4.88-9.43,7.8-14.08,2.67-4.25,5.61-8.45,8.84-12.59,6.97,7.49,12.33,15.52,16.46,23.97,4.24,8.67,7.19,17.79,9.27,27.22,2.13,9.69,3.34,19.69,4.07,29.86.73,10.21.98,20.56,1.19,30.91l-.44,36.56Z"/>
    <path d="M163.04,189.09c-.74-10.35-1.97-20.55-4.15-30.43-2.18-9.89-5.3-19.49-9.81-28.63-4.48-9.09-10.34-17.72-18.01-25.76-1.65-10.79-3.87-21.12-6.69-30.92-2.79-9.71-6.16-18.92-10.15-27.59-3.96-8.62-8.52-16.68-13.7-24.16-4.51-6.51-9.49-12.57-14.95-18.16l-3.47-3.43-3.47,3.43c-5.47,5.59-10.45,11.65-14.95,18.16-5.18,7.48-9.74,15.54-13.7,24.16-3.98,8.67-7.36,17.88-10.15,27.59-2.82,9.81-5.04,20.13-6.69,30.92-7.67,8.04-13.52,16.68-18.01,25.76-4.51,9.14-7.63,18.74-9.81,28.63-2.17,9.89-3.41,20.08-4.15,30.43C.47,199.39.22,209.89,0,220.4h0c0,8.92.15,18.12.3,27.31.07,4.52.15,9.04.2,13.54v.69s43.85-.26,43.85-.26c12.59,9.77,25.18,19.54,37.78,29.31l37.78-29.31,43.84.26v-.69c.06-4.49.14-9.01.21-13.54.15-9.19.3-18.39.3-27.29h0c-.21-10.53-.46-21.03-1.2-31.33ZM162.84,220.42c0,9.23-.15,18.25-.29,27.27-.07,4.28-.14,8.57-.19,12.85l-42.94-.26c-12.07,9.36-26.37,20.46-37.3,28.94-10.97-8.51-25.22-19.57-37.3-28.94l-42.94.26c-.06-4.28-.12-8.57-.19-12.85-.15-9.01-.29-18.04-.29-27.27h0c.21-10.46.46-20.91,1.2-31.23.74-10.28,1.96-20.41,4.12-30.23,2.16-9.8,5.24-19.29,9.7-28.31,4.45-9.02,10.28-17.6,17.92-25.58l.16-.16.03-.22c1.65-10.81,3.87-21.15,6.68-30.96,2.77-9.66,6.12-18.8,10.07-27.39,3.92-8.54,8.44-16.53,13.58-23.95,4.29-6.2,9.02-11.98,14.18-17.34.83-.87,2.02-2.06,3.09-3.1,1.06,1.04,2.28,2.26,3.2,3.22,5.12,5.32,9.81,11.07,14.07,17.22,5.13,7.41,9.65,15.41,13.58,23.95,3.95,8.59,7.3,17.73,10.07,27.39,2.82,9.82,5.04,20.15,6.68,30.96l.03.22.16.16c7.64,7.98,13.46,16.55,17.92,25.58,4.45,9.03,7.54,18.52,9.69,28.31,2.16,9.82,3.38,19.95,4.12,30.23.74,10.33.99,20.77,1.2,31.23h0Z"/>
    <path d="M123.87,173.97s.41,0,.63.27c.03.06.36.41.8.41,0,0,.44,0,.67-.26.05-.06.02-.23-.05-.18-.33.27-.71.39-1.11-.07v-.02c-.32-.39-.86-.4-.89-.4-1.31-.07-1.61.9-1.52.92.09.02.43-.72,1.46-.66Z"/>
    <path d="M122.6,173.85s.5-.86,1.59-.8h.01c.67,0,.88.25,1.07.52.42.6,1.19.67,1.67.48.09-.04.46-.39.38-.34-.53.34-1.41.17-1.71-.36-.2-.35-.51-.7-1.34-.7-1.29-.07-1.98,1.2-1.9,1.25.08.05.19.03.24-.06Z"/>
    <path d="M124.21,175.54h0c.48-.07.87-.24,1.06-.33.18-.07.35-.46.27-.4-.42.28-.76.07-.8.02,0,0-.04-.06-.1-.13-.16-.19-.39-.45-.79-.51h0c-.69-.1-1.27.6-1.35.7l-.02.02c-.05.08-.02.19.06.24.79.49,1.67.39,1.67.39ZM124.15,174.69c.09.07.17.16.23.23.06.07.12.14.18.19-.12.03-.25.06-.39.08,0,0-.02,0-.07,0,.06-.08.09-.18.09-.29,0-.08-.02-.15-.05-.22ZM123.31,175.11c-.13-.04-.27-.09-.41-.16.11-.11.28-.26.47-.35-.06.08-.1.18-.1.31,0,.07.01.14.04.2Z"/>
    <path d="M40.65,173.71s-.57.02-.88.4v.02c-.41.46-.79.34-1.12.07-.06-.05-.1.12-.05.18.23.26.67.26.67.26.44,0,.77-.35.8-.41.22-.27.63-.27.63-.27,1.03-.06,1.37.68,1.46.66.09-.02-.21-.99-1.52-.92Z"/>
    <path d="M40.32,172.66c-.83,0-1.14.35-1.34.7-.3.52-1.18.7-1.72.36-.08-.05.29.3.38.34.48.2,1.25.12,1.67-.48.19-.27.4-.52,1.07-.52h0c1.09-.07,1.59.79,1.59.8.05.08.16.11.24.06.08-.05-.6-1.32-1.9-1.25Z"/>
    <path d="M42.07,174.89c-.08-.1-.66-.8-1.35-.7h0c-.4.07-.62.33-.79.52-.06.07-.1.12-.1.13-.03.06-.38.26-.8-.02-.08-.05.09.33.27.4.18.09.57.26,1.05.33h0s.89.1,1.67-.39c.08-.05.11-.16.06-.24l-.02-.02ZM40.4,175.19c-.14-.02-.27-.05-.39-.08.06-.05.12-.11.18-.19.06-.07.14-.16.23-.23-.03.06-.04.13-.04.22,0,.12.03.21.09.29-.04,0-.07,0-.07,0ZM41.26,175.11c.02-.06.04-.13.04-.2,0-.12-.04-.23-.1-.31.2.09.36.24.47.35-.14.07-.28.12-.41.16Z"/>
    <path d="M39.89,237.46c.46.86,2.18,2.51,2.9.79-.6-.18-1.45-.53-1.58-1.32,2.04-.59,4.25,1.35,5.3,2.11.49-.43.84-.74,1.3-1.32-1.92-1.99-6.42-3.63-7.92-.26Z"/>
    <path d="M52.25,243.12c-.42,1.39.87,3.4.21,5.37-1.05.03-2.26-.77-2.16-.99.64-1.42,3.29-6.81-.04-6.84-.78,0-1.34.49-1.89,1.25,1.21.23,1.8.57,1.82,1.46.05,1.47-1.18,3.77-1.82,4.6.85,1.15,2.12,2.2,3.81,2.57,5.23-1.35-.64-8.08,3.27-8.08v8.19s2.11-1.39,2.11-1.39l.05-8.59c-1.38,0-4.43-.43-5.37,2.45Z"/>
    <path d="M125.71,247.53v-6.96s-2.2,1.5-2.2,1.5l.03,5.79c0,1.78,1.25,2.57,2.21,2.55.94-.52,1.4-.98,1.67-2.19-.57.51-1.71.71-1.72-.69Z"/>
    <path d="M133.73,240.69l-2.15,1.47c.85.03,1.52.28,1.51.8l-.02,7.67,2.19-1.5.02-6.75,2.86.04-.05,8.27,2.18-1.43-.03-8.59-6.51.03Z"/>
    <path d="M18.45,247.82l-2.88-1.79v-3.88c0-2.09-2.63-1.89-3.39-.3,1.41,0,1.18.92,1.22,1.61v2.32s-1.1.85-1.58,1.72c.81.62,1.5,1.62,1.6,2.88l2.13-1.46.05-.96c1.09.73,2.03,1.49,2.88,2.52l2.14-1.46v-8.5s-2.17,1.49-2.17,1.49l.02,5.81Z"/>
    <path d="M39.37,242.39h5.19l-.03,6.48c-.48-.13-1-.48-1.23-1.15l-1.39.95c.47,1.54,1.79,1.89,2.63,1.86.86-.33,2.17-1.33,2.17-2.36v-7.52s-5.65.02-5.65.02l-1.67,1.73Z"/>
    <path d="M64.4,241.99l-.02,6.87c-1.39-.16-2.83-.84-3.62-2.26,0-.79,1.75-1.48,2.35-1.87-1.37-.61-2.49-1.15-2.61-2.61.91-.85,2.37.46,2.63,1.14,1.09-.77.84-2.13-.46-2.52-1.47-.44-2.88,1.34-3.63,2.59.24,1.09.98,1.64,1.71,2.18-.71.18-1.53.73-1.71,1.7.49,1.57,2.22,3.4,4.94,3.22.87-.58,1.73-1.19,2.57-1.71l-.02-8.26-2.14,1.52Z"/>
    <path d="M76.98,240.66l-1.65,1.73h6.1s0,2.77,0,2.77c-1.28-1.7-3.12-1.93-4.2-1.01-1.58,1.35-2.06,4.72.39,6.3,1.47-.09,2.06-1.25,2.1-2-1.31.61-3.01-1.95-2.25-3.65,2.85.3,3.79,3.96,3.97,5.73l2.14-1.58v-8.31s-6.61,0-6.61,0Z"/>
    <path d="M105.09,240.63l-1.7,1.77h5.6v6.33c-1.49-.09-3.28-1.01-3.81-2.16-.85-1.84,2.38-2.19,1.45-.51-.26.47,1.31-.14,1.4-.99.09-.82-.73-1.34-1.77-1.26-1.13.09-2.38,1.18-2.61,2.23-.55,2.49,1.88,4.36,4.61,4.36l2.91-1.96-.04-7.79-6.04-.02Z"/>
    <path d="M120.05,247.08l.73-.49c.44-.26.49-.74.49-1.08v-5.05s-2.19,1.53-2.19,1.53l.03,5.2c-.84.38-1.57.84-2.17,1.4-.04.04-1.88-1.01-2.26-2.08,1.45-1.53,2.67-3.09,1.99-5.03-.97-1.39-2.73-.85-3.39.48,1.33-.06,1.64.97,1.7,1.21.91,3.15-3.14,3.52-1.26,5.52.73.73,1.74,1.39,2.95,1.7,1.53-2.18,4.08-2.25,3.38.11,2.37.04,2.62-3.51,0-3.42Z"/>
    <path d="M29.68,243.34h-.63c-.55,0-.89-.61-.97-.95h2.42s1.6-1.74,1.6-1.74h-3.25s-2.34,2.47-2.34,2.47v5.33c-.85-.36-1.82-.61-2.18-1.45,1.91-1.25,2.28-6.03.52-6.4-.87-.19-2.01.28-2.84,1.47,3.86-.45,1.72,4.93.38,6.14.85,1.01,1.72,1.78,2.94,2.26,1.64-1.21,3.26-2.42,3.14-5.39h1.09s-.01,5.4-.01,5.4l2.22-1.49-.03-5.65h-2.05Z"/>
    <path d="M99.79,248.58c-1.26.11-2.52-.76-2.67-1.4,1.03-1.29,2.44-2.64,2.12-5.52-1.52-2.3-3.81-.42-5.03.97.36,1.27,2.3,2.06,2.91.48-.61,0-1.88-.73-1.21-1.21,3.88.91-.18,4.85-.97,6.25.78.87,2.08,2.29,4.86,2.28l2.16-1.45v-8.64l-2.18,1.45v6.78Z"/>
    <path d="M88.03,235.68c-.9,1.31-2.99,2.04-4.69,1.93-.62-.35-1.04-.97-1.38-1.66-.8.19-1.38.62-1.38,1.66,1.95,3,7.48.81,7.45-1.93Z"/>
    <polygon points="69.05 240.64 67.41 242.39 71.65 242.39 71.65 250.51 73.82 248.97 73.8 240.66 69.05 240.64"/>
    <path d="M130.13,247.53v-6.96s-2.2,1.5-2.2,1.5l.03,5.79c0,1.78,1.25,2.57,2.21,2.55.94-.52,1.4-.98,1.67-2.19-.57.51-1.71.71-1.72-.69Z"/>
    <path d="M148.65,247.08l.73-.49c.44-.26.49-.74.49-1.08v-5.05s-2.19,1.53-2.19,1.53l.03,5.2c-.84.38-1.57.84-2.17,1.4-.04.04-1.88-1.01-2.26-2.08,1.45-1.53,2.67-3.09,1.99-5.03-.97-1.39-2.73-.85-3.39.48,1.33-.06,1.64.97,1.7,1.21.91,3.15-3.14,3.52-1.26,5.52.73.73,1.74,1.39,2.95,1.7,1.53-2.18,4.08-2.25,3.38.11,2.37.04,2.62-3.51,0-3.42Z"/>
    <path d="M90.58,241.99l-.02,6.87c-1.39-.16-2.83-.84-3.62-2.26,0-.79,1.75-1.48,2.35-1.87-1.37-.61-2.49-1.15-2.61-2.61.91-.85,2.37.46,2.63,1.14,1.09-.77.84-2.13-.46-2.52-1.47-.44-2.88,1.34-3.63,2.59.24,1.09.98,1.64,1.71,2.18-.71.18-1.53.73-1.71,1.7.49,1.57,2.22,3.4,4.94,3.22.87-.58,1.73-1.19,2.57-1.71l-.02-8.26-2.14,1.52Z"/>
    <polygon points="33.72 240.64 32.08 242.39 36.32 242.39 36.32 250.51 38.48 248.97 38.46 240.66 33.72 240.64"/>
    <polygon points="140.24 234.62 138.09 236.02 138.09 238.98 140.24 237.58 140.24 234.62"/>
  </g>
</svg>