<?xml version="1.0" encoding="UTF-8"?>
<svg id="Layer_2" data-name="Layer 2" xmlns="http://www.w3.org/2000/svg" viewBox="0 0 603.23 249.93">
  <g id="Layer_1-2" data-name="Layer 1">
    <g>
      <path d="M125.79,208.96c-18.5,3.33-37.57-3.35-50.36-17.57-7-7.78-10.89-17.26-10.88-27.89l.05-77.06c0-11.72,9.44-17.74,11.52-26.36,1.77-7.33-1.61-15.25-7.6-19.63-7.39-5.41-19.99-1.56-26.95,4.78-5.8,2.33-12.1,2.07-17.82-.38-5.07-2.99-9.57-7.05-11.28-13.14,5.83,6.83,14.03,8.74,21.98,5.31,4.28.12,8.39-.28,12.64-1.17,6.69-1.41,13.32-2.19,20.18-1.87,7.82.37,14.74,4.35,18.82,10.85,3.14,4.99,3.16,10.93-.34,15.83-4.28,5.99-6.91,12.61-6.92,20.39l-.07,88.23c1.43,15.37,11,28.33,24.91,34.63,6.91,3.42,13.85,4.63,22.11,5.05Z"/>
      <path d="M155.83,143.62l.06,26.64c-.06,3.37,2.34,3.7,5.58,5.36-6.02.45-11.69.29-17.68.29l-.1-31.06c0-3.07-1.4-6.21-3.85-7.75-6.49-4.07-13.27,2.44-18.01,8.11-1.7,2.04-5.21,4.03-5.24,6.96l-.17,17.41c-.03,3.5,1.93,4.3,5.58,6.1-7.62.38-14.61.33-22.67.11,3.47-1.86,5.43-2.52,5.42-6.01l-.04-49.81c0-2.77-2.22-4.52-4.86-4.39-.49.02-1.66-.53-1.9-.86l13.46-4.97c.83-.31,2.52-.58,3.17-.16.73.47,1.79,2.05,1.8,3.13l.1,32.38c5.1-5.75,10.24-10.28,15.73-15l8.25-7.1c1.29-1.11,1.57-3.99.2-4.88-2.6-1.69-5.37-.43-7.66,1.25.44-1.53,1.42-3.02,2.67-4.06,5.83-4.84,13.29-8.47,17.89-2.46.3.39,1.03,1.06,1.46,1.16.52.12,1.61-.37,2.08-.65l1.16-.7c.26-.16.47,1.34.25,1.55l-3.19,2.99c-5.03,4.71-9.89,8.9-15.81,12.66,9.36-.35,16.29,4.29,16.31,13.78Z"/>
      <path d="M461.14,112.5l.07,56.28c0,4.17,2.72,5.11,6.61,6.92l-16.77.22c-2.06-3.15-1.61-6.29-1.68-10.5-6.76,8.35-16.39,13.84-27.55,10.83-7.63-2.06-12.5-8.56-12.52-16.6l-.1-39.75c-.01-5.38-5.77-3.55-6.58-5.25l13.2-4.79c.88-.32,2.52-.76,3.18-.38.75.43,1.85,2.06,1.85,3.13l.11,47.57c0,3.31,1.4,6.79,4.22,8.36,4.75,2.65,10.87,2.52,15.6-.08,3.61-1.98,6.22-4.99,8.7-8.31l-.03-40.23c0-5.28-5.67-3.66-6.57-5.28l13.55-4.95c.76-.28,2.24-.52,2.83-.2.68.37,1.86,1.75,1.86,3.03Z"/>
      <path d="M235.75,147.79l2.89-3.9c3.79-5.1,9.67-6.95,15.85-4.72l-.15,9.83c-3.7-3.24-7.65-4-11.79-1.96-3.18,1.57-6.27,5.44-6.31,9.28l-.13,13.46c-.03,3.37,2.17,4.12,5.5,5.88-7.6.41-14.73.37-22.15.06,3.17-1.84,5.03-2.56,5.04-5.67l.17-39.09c.04-8.89,5.55-15.84,13.51-19.32,9.22-4.02,19.92-3.3,28.9,1.34,5.86,3.03,9.76,8.78,9.79,15.59l.21,41.53c.02,4.31,5.06,4.77,5.05,4.87l-.04.95-21.95-.21c3.07-1.84,5.22-2.42,5.22-5.68v-39.6c.01-9.37-3.92-15.95-13.35-16.75-8.36-.71-16.08,4.7-16.14,13.52l-.14,20.59Z"/>
      <path d="M577,193.36c-17.9,18.79-48.79,22.65-72.38,15.89,26.79,2.87,54.72.4,66.44-25.74,2.59-5.78,3.31-11.78,2.08-18.03-3.23-16.45-25.16-18.13-33.48-28.42-6.18-7.65-3.48-18.86,4.66-24,10.29-6.5,22.98-4.41,34.6-.05l-.15,14.92c-2.34-4.01-2.65-7.89-6.03-10.59-8.79-7.01-24.33-5.07-26.21,3.55-1.86,8.51,7.45,10.74,15.35,15.05l12.39,6.76c8.47,5.75,12.87,14.52,12.89,24.68.02,9.94-3.22,18.71-10.15,25.99Z"/>
      <path d="M502.43,123.3c-2.66-2.03-4.33-7.48-8.47-7.53-8-.09-16.01,28.74-7.33,47.88,2.48,5.47,7.55,8.99,13.46,8.41,3.28-.32,5.2-1.8,7.22-4.91l.12,5.02c-3.73,3.46-8.29,5-13.51,4.87-8.52-.22-15.97-5.35-19.16-13.59-7.26-18.75-2.72-48.18,18.8-54.57l7.39,5.94.45-5.27c.04-.44,1.25-.88,1.98-.78l.33,5.87,6.96-5.68c3.42.43,5.96,2.15,8.6,3.87,4.35,2.83,6.73,7.06,6.75,12.51l.19,44.31c.02,3.66,2.99,4.23,6.19,6.11l-22.96-.02c3.42-1.64,5.69-2.44,5.69-5.99l-.06-43.62c0-2.9-.65-5.85-1.78-8.19-1.02-2.11-3.67-2.7-5.38-1.45-2.44,1.79-3.6,3.62-5.49,6.81Z"/>
      <path d="M358,117.06c-9.78,9.52-11.14,38.5-1.42,50.39,2.83,3.45,7.16,5.21,11.41,4.51,2.93-.48,4.05-2.15,5.84-5l.13,5.7c-5.63,4.7-13.12,5.62-20.01,2.64-6.28-2.73-11.16-8.24-13.21-15-3.29-10.85-2.84-22.57,1.15-33.03,4.38-11.48,14.6-18.49,26.82-18.36,7.29.07,14.3,2.09,19.75,7.07,4.09,3.74,6.52,9.2,6.54,14.94l.13,38.77c.01,3.45,2.33,4.26,5.65,6.01l-22.42.03c3.12-1.89,5.1-2.46,5.1-5.58l-.04-38.76c0-5.04-1.53-10-4.86-13.73-5.29-5.93-14.73-6.29-20.57-.6Z"/>
      <path d="M330.32,164.93c-6.18,14.98-28.63,14.46-42.43,6.9l.33-14.6c3.33,8.16,8.94,14.41,17.64,15.85,4.59.76,9.48-.18,12.82-3.43,2.84-2.76,3.58-6.71,2.78-10.78-.6-3.1-2.94-6.33-6.28-8.09l-13.2-6.94c-3.92-2.06-8.36-3.94-11.27-7.39-6.74-8.01-3.41-19.88,5.77-24.57,9.89-5.07,20.72-2.86,31.36,1.15l-.17,14.57c-2.37-4.59-3.55-8.43-7.4-11.15-5.21-3.69-12.08-4.51-17.94-2.11-3.5,1.43-5.53,4.27-5.66,7.71s1.82,6.54,5.12,8.17l14.75,7.27c4.56,2.25,8.85,4.56,11.91,8.78,3.86,5.31,4.58,12.09,1.86,18.67Z"/>
      <path d="M177.32,169.46c4.64,3.99,11.29,5.44,16.44,1.96,3.61-2.44,5.79-6.49,7.03-10.75,3.95-13.61,3.63-37.52-7.95-44.88-7.76-4.93-19.67-1.2-23.72,8.22-.3-2.63-.3-4.59-.09-7.02,10.04-9.89,26.22-10.76,37.03-1.49,9.97,8.55,10.36,30.72,6.27,43.67-3.42,10.81-12.41,17.58-23.64,17.92-6.98.21-13.42-1.72-19.53-4.93l.2-14.52c2.48,4.79,4.08,8.47,7.97,11.81Z"/>
      <path d="M581.32,98.89c-4.23,1.8-9.08,1.09-13.08-.5l-9.95-3.95c-8.98-3.56-17.8-1.65-25.59,4.65,2.79-5.31,7.3-8.56,11.76-11.8,5-3.1,10.82-3.79,16.21-1.48l9.08,3.89c3.42,1.47,6.8,2.64,10.52,2.16,5.18-.68,9.24-4.31,10.14-9.47.43-2.46-.57-5.19-2.44-6.57l-1.62.76c-4.91-4.27-3.22-11.45,1.07-16.87l.84,4.51c.6-2.61,1.01-5.46,2.77-7.65,4.71-5.89,5.83-12.66,5.3-20.38l3.8,14.93c.86,3.36,1.07,5.83-.67,9.39,1.38-1.14,2.08-1.95,2.91-3.11,1.92,6.24.7,13.61-4.64,15-2.04.53-3.94-.41-4.74-1.86-.91-1.66.14-4.48,1.76-4.89.57-.15,1.2,1.15,1.37,1.83.26-.26.56-1.43.42-1.99-.18-.67-1.82-1.09-2.61-.75-2.57,1.11-3.32,4.39-2.3,7.02l1.91,4.9c1.25-1.52,3.32-2.41,5.13-2.3-2.09,1.01-3.39,2.47-4.06,4.49l-2.86,8.7c-1.61,4.89-5.4,9.2-10.42,11.33Z"/>
      <path d="M328.44,182.55l-.09,13.17c-.06,8.06-13.41,12.58-23.87,7.65-7.34-3.46-3.86-10.48-5.25-15.48-.66-2.4-3.57-1.55-5.64-.89,1.71-3.04,5.54-4.44,8.84-4.81,3.65-.41,6.7,2.19,6.73,5.81l.06,10.06c.02,2.6,1.82,4.06,4.3,4.14,3.03.09,5.38-1.91,5.39-5.08l.03-14.53,9.5-.04Z"/>
      <path d="M228.6,85.28c-5.25,16.1-23.6,18.76-39.35,16.5,3.86-2.68,6.9-5.4,7.32-9.7.23-2.36-1.01-4.4-3.27-4.5-1.94-.08-3.39,1.63-3.86,4.17-1.4-2.36-.77-5.32,1.56-7.13,3.53-2.74,9.31-3.23,12.61.13,3.99,4.06,2.26,10.16-2.16,13.48,4.34-.06,8.27-1.59,11.37-4.11,2.75-2.4,4.44-5.6,3.64-9.25,4.16.96,7.52,1.2,12.13.42Z"/>
      <path d="M22.02,17.77c-2.38,7.59,2.17,14.82,9.97,17.06-5.89,2.41-13,.96-17.31-3.94-5.73-6.51-3.03-14.8-4.4-21.49C9.18,4.01,5.08.99,0,.01c6.15-.2,11.93,2.13,16.53,5.91,1.96,1.61,2.57,3.68,3.29,6.24.69-1.85.5-3.69-.01-5.57,4.54,2.14,7.94,6.95,6.09,12.11l-1.15-2.1c-.33-.6-2.48.36-2.73,1.17Z"/>
      <path d="M421,209.54l-53.22.6c-12.63.14-24.63,2.1-36.41,6.27-4.99,1.76-9.1,4.34-13.56,7.18,4.86-5.84,11.52-9.32,18.55-11.79,8.7-3.05,17.35-3.79,26.64-3.72l60.4.43,38.69.15.26.43-29.04.29-12.31.16Z"/>
      <path d="M282,216.86c-10.82-4.09-21.6-6.35-33.04-6.52l-60.2-.87-4.41-.26-34.28-.08-.29-.44,38.98-.16,66.15-.33c12.73-.06,30.64,5.29,39.04,15.38-4.03-2.43-7.4-5-11.94-6.72Z"/>
      <path d="M40,24.32c1.74,4.4,8.74.26,15.89,8.1-3.09-.21-5.6-.17-8.42.43-6.59,1.4-13.54,1.83-17.87-3.39-2.38-2.88-2.95-6.89-.43-9.53-.48,5.93,5.97,4.83,11.09,8.83-.6-1.58-.78-3.39-.27-4.43Z"/>
      <path d="M309.67,225.92c1.87-3.58.44-6.77,3.25-8.24l6.53-3.4c-1.81,8.66-9.75,13.46-13.31,22.3-3.49-8.96-11.66-13.08-13.67-22.27,4.15,1.62,8.77,3.41,8.91,7.29.16,4.77,3.58,6.23,4.74,11.12l3.55-6.79Z"/>
      <path d="M587.27,79.93c1.3,3.91-1.37,7.64-5.37,8.85-3.37,1.02-6.78.1-10.07-1.16l-6.94-2.65c4.4-3.48,9.69-2.17,10.79-9.07l2.02,4.05c.57,1.14.49,3.13-.02,4.3l4.12-.07c2.92.81,4.54-1.14,5.47-4.25Z"/>
      <path d="M306.22,249.93l-3.37-5.82,3.32-6.64,3.5,6.68-3.45,5.79ZM306.22,246.5l1.59-2.4-1.52-2.66-1.71,2.48,1.65,2.57Z"/>
      <path d="M320.81,227.72l-5.11,1.36c1.44-2.29,4-3.61,6.86-4.23,1.87-2.89,5.02-4.32,8.27-3.99-4.84,2.71-4.52,5.41-10.03,6.87Z"/>
      <path d="M295.66,228.77l-4.68-.94c-5.23-1.05-5.47-4.81-10.2-6.49,3.79-1.12,6.03,1.26,8.57,3.29,1.8,1.44,5.18,1.28,6.31,4.14Z"/>
      <path d="M306.06,214.53c-2.76,2.32-3.29,5.89-3.26,9.55-2.08-4.44.39-8.81,3.31-12.07,2.96,3.46,4.97,7.68,3.24,12.05.03-3.47-.35-6.6-3.29-9.53Z"/>
    </g>
  </g>
</svg>